<?xml version="1.0" encoding="UTF-8" standalone="no"?>
<svg
   width="1018.1921"
   height="938.56885"
   viewBox="0 0 1018.1921 938.56885"
   fill="none"
   version="1.1"
   id="svg6"
   sodipodi:docname="38c3-esperanto.svg"
   inkscape:version="1.4 (e7c3feb100, 2024-10-09)"
   inkscape:export-filename="logo-full.pdf"
   inkscape:export-xdpi="96"
   inkscape:export-ydpi="96"
   xmlns:inkscape="http://www.inkscape.org/namespaces/inkscape"
   xmlns:sodipodi="http://sodipodi.sourceforge.net/DTD/sodipodi-0.dtd"
   xmlns="http://www.w3.org/2000/svg"
   xmlns:svg="http://www.w3.org/2000/svg">
  <defs
     id="defs6" />
  <sodipodi:namedview
     id="namedview6"
     pagecolor="#505050"
     bordercolor="#ffffff"
     borderopacity="1"
     inkscape:showpageshadow="0"
     inkscape:pageopacity="0"
     inkscape:pagecheckerboard="1"
     inkscape:deskcolor="#505050"
     inkscape:zoom="0.47282493"
     inkscape:cx="412.4148"
     inkscape:cy="683.12811"
     inkscape:window-width="1709"
     inkscape:window-height="1175"
     inkscape:window-x="0"
     inkscape:window-y="0"
     inkscape:window-maximized="1"
     inkscape:current-layer="svg6"
     showgrid="false"
     inkscape:export-bgcolor="#00000000" />
  <path
     d="m 908.26286,351.55785 0.897,-3.13 0.709,-1.225 0.89,-1.155 1.05,-1.055 1.187,-0.933 2.292,-1.589 2.502,-1.525 2.67,-1.218 2.786,-0.89 2.84,-0.54 0.685,-0.085 2.435,-0.191 2.401,0.048 2.336,0.29 2.239,0.526 1.431,0.42 2.153,0.734 2.045,0.904 1.916,1.072 1.778,1.227 1.396,1.066 1.537,1.256 1.439,1.341 1.334,1.427 1.228,1.502 1.594,2.091 0.983,1.343 0.934,1.371 0.883,1.403 0.833,1.432 2.075,3.717 0.54,0.984 0.53,0.989 0.52,0.997 0.51,1.001 3.17,6.294 0.11,0.235 0.12,0.236 0.12,0.236 0.12,0.235 3.52,7.051 0.31,0.633 0.31,0.633 0.31,0.632 0.31,0.635 1.99,4.063 0.84,1.747 0.84,1.755 0.82,1.761 0.82,1.764 0.39,0.861 1.03,2.269 1.01,2.279 1,2.285 0.97,2.293 0.47,1.12 0.7,1.671 0.69,1.674 0.68,1.677 0.67,1.684 1.95,4.959 0.16,0.405 0.16,0.408 0.16,0.406 0.16,0.408 2.34,6.032 0.45,1.157 0.46,1.154 0.46,1.154 0.46,1.15 0.98,2.407 0.9,2.194 0.92,2.185 0.93,2.177 0.96,2.171 1.04,2.316 1.06,2.306 1.07,2.299 1.1,2.288 1.03,2.119 0.52004,1.073 0.53,1.069 0.53,1.068 0.53,1.067 2.23,4.409 0.56,1.116 0.54,1.12 0.55,1.124 0.54,1.128 1.43,3.037 0.83,1.8 0.79,1.813 0.76,1.828 0.72,1.845 0.46,1.179 0.79,2.154 0.73,2.18 0.67,2.2 0.61,2.222 0.15,0.581 0.55,2.26 0.48,2.278 0.41,2.301 0.34,2.321 0.13,0.968 0.24,2.135 0.17,2.146 0.1,2.161 0.03,2.172 -0.01,1.655 -0.06,2.058 -0.14,2.067 -0.24,2.074 -0.32,2.075 -0.32,1.74 -0.45,2.155 -0.58,2.149 -0.72,2.137 -0.84,2.115 -0.53,1.218 -1.05,2.211 -1.23,2.163 -1.4,2.102 -1.56,2.028 -0.59,0.718 -1.75,1.965 -1.92,1.845 -2.07,1.712 -2.21004,1.568 -0.62,0.403 -2.37,1.41 -2.47,1.21 -2.57,0.999 -2.72,0.8 -2.94,0.593 -2.85,0.296 -2.82,0.011 -2.75,-0.27 -2.55,-0.522 -2.42,-0.774 -2.27,-1.013 -2.09,-1.246 -0.89,-0.606 -1.62,-1.21 -1.5,-1.33 -1.35,-1.443 -1.22,-1.548 -2.609,-3.671 -0.398,-0.566 -0.386,-0.573 -0.381,-0.577 -0.369,-0.581 -2.127,-3.411 -1.212,-1.854 -1.288,-1.805 -1.368,-1.756 -1.44,-1.703 -1.844,-1.99 -1.948,-1.91 -2.053,-1.821 -2.147,-1.735 -0.489,-0.377 -1.603,-1.191 -1.643,-1.151 -1.685,-1.103 -1.725,-1.06 -2.61,-1.55 -1.415,-0.83 -1.428,-0.81 -1.445,-0.794 -1.458,-0.778 -2.581,-1.352 -1.891,-0.981 -1.905,-0.965 -1.918,-0.95 -1.928,-0.932 -3.627,-1.738 -1.012,-0.482 -1.017,-0.476 -1.019,-0.473 -1.026,-0.469 -4.554,-2.064 -1.511,-0.704 -1.493,-0.73 -1.474,-0.757 -1.453,-0.782 -0.812,-0.446 -2.66,-1.545 -2.573,-1.644 -2.478,-1.742 -2.384,-1.84 -1.571,-1.31 -1.521,-1.353 -1.474,-1.396 -1.424,-1.434 -3.901,-4.064 -0.163,-0.171 -0.217,-0.225 -3.992,-4.12 -1.417,-1.428 -1.453,-1.395 -1.495,-1.361 -1.534,-1.327 -1.112,-0.938 -1.779,-1.448 -1.838,-1.389 -1.897,-1.33 -1.957,-1.27 -0.576,-0.362 -2.132,-1.267 -2.197,-1.189 -2.263,-1.106 -2.381,-1.047 -2.577,-1.012 -2.578,-0.887 -2.635,-0.786 -2.687,-0.685 -2.652,-0.564 -2.695,-0.467 -2.731,-0.367 -2.761,-0.27 -0.497,-0.039 -2.634,-0.166 -2.651,-0.084 -2.668,-0.004 -2.681,0.08 -0.962,0.043 -2.635,0.152 -2.643,0.22 -2.644,0.286 -2.647,0.354 -1.632,0.236 -2.371,0.384 -2.368,0.455 -2.36,0.523 -2.354,0.594 -3.39,0.988 -3.355,1.132 -3.313,1.272 -3.263,1.41 -1.514,0.693 -1.449,0.68 -1.432,0.716 -1.417,0.745 -1.4,0.777 -3.857,2.196 -1.92,1.018 -1.978,0.899 -2.026,0.775 -2.064,0.65 -3.456,0.779 -3.471,0.41 -3.434,0.035 -3.344,-0.343 -0.457,-0.073 -1.852,-0.36 -1.797,-0.47 -1.739,-0.581 -1.674,-0.687 -4.729,-2.138 -0.813,-0.375 -0.807,-0.388 -0.797,-0.398 -0.789,-0.408 -3.645,-1.928 -1.929,-1.113 -1.812,-1.245 -1.685,-1.366 -1.553,-1.487 -0.784,-0.811 -1.436,-1.66 -1.237,-1.79 -1.027,-1.909 -0.809,-2.014 -0.24,-0.702 -0.583,-2.179 -0.296,-2.263 -0.006,-2.319 0.283,-2.345 0.649,-2.61 0.998,-2.573 1.327,-2.498 1.723,-2.492 1.73,-2.058 1.835,-1.827 2.01,-1.682 2.161,-1.524 1.88,-1.216 1.865,-1.141 1.92,-1.056 1.967,-0.963 2.013,-0.868 4.44,-1.798 1.336,-0.508 1.352,-0.452 1.367,-0.391 1.377,-0.333 1.978,-0.436 3.286,-0.951 3.156,-1.378 2.945,-1.767 2.664,-2.112 1.672,-1.675 1.475,-1.797 1.265,-1.9 1.032,-1.98 0.512,-1.129 0.929,-2.359 0.662,-2.391 0.388,-2.399 0.113,-2.381 -0.037,-3.26 -0.027,-0.999 -0.053,-0.997 -0.089,-0.987 -0.114,-0.985 -0.951,-7.16 -0.062,-0.38 -0.075,-0.376 -0.094,-0.373 -0.113,-0.364 -1.492,-4.488 -0.908,-1.48 -1.524,-0.997 -1.926,-0.373 -2.066,0.299 -1.493,0.659 -1.285,0.975 -0.977,1.214 -0.589,1.35 -1.177,4.333 -0.261,0.834 -0.326,0.826 -0.389,0.812 -0.454,0.797 -1.394,2.267 -1.76,2.334 -2.222,2.037 -2.58,1.656 -2.834,1.205 -2.178,0.563 -2.199,0.278 -2.164,-0.014 -2.085,-0.311 -2.355,-0.527 -1.885,-0.514 -1.794,-0.675 -1.685,-0.829 -1.564,-0.978 -4.231,-2.961 -0.524,-0.373 -0.516,-0.378 -0.51,-0.386 -0.502,-0.394 -2.909,-2.319 -2.058,-1.557 -2.148,-1.465 -2.236,-1.372 -2.316,-1.273 -2.293,-1.131 -2.362,-1.035 -2.422,-0.939 -2.485,-0.845 -1.956,-0.619 -1.677,-0.513 -1.692,-0.481 -1.71,-0.45 -1.725,-0.419 -4.995,-1.158 -1.142,-0.265 -1.148,-0.256 -1.149,-0.25 -1.153,-0.245 -5.394,-1.136 -1.573,-0.332 -1.567,-0.339 -1.567,-0.344 -1.562,-0.35 -4.308,-0.967 -1.677,-0.372 -1.685,-0.356 -1.689,-0.345 -1.694,-0.333 -3.077,-0.591 -2.232,-0.405 -2.244,-0.369 -2.258,-0.331 -2.274,-0.295 -3.886,-0.467 -1.379,-0.148 -1.391,-0.115 -1.4,-0.083 -1.406,-0.048 -5.113,-0.112 -1.768,0.025 -1.782,0.153 -1.786,0.278 -1.776,0.403 -3.043,0.797 -2.219,0.752 -2.099,1.054 -1.921,1.328 -1.685,1.563 -1.651,2.136 -1.167,2.323 -0.631,2.408 -0.071,2.39 0.028,0.305 0.344,1.839 0.675,1.72 0.995,1.564 1.285,1.371 3.656,3.236 0.388,0.334 0.396,0.329 0.404,0.32 0.412,0.311 4.344,3.221 1.345,1.17 1.123,1.345 0.879,1.496 0.62,1.623 0.378,1.294 0.32,2.017 -0.17,2.095 -0.657,2.093 -1.114,1.996 -1.628,1.92 -2.009,1.629 -2.301,1.262 -2.48,0.831 -0.912,0.218 -2.044,0.353 -2.03,0.088 -1.973,-0.183 -1.87,-0.445 -6.064,-1.931 -0.314,-0.099 -0.418,-0.127 -6.429,-1.862 -1.818,-0.385 -1.906,-0.133 -1.953,0.126 -1.959,0.377 -1.035,0.268 -2.572,0.941 -2.344,1.422 -1.975,1.817 -1.503,2.113 -0.786,1.786 -0.412,1.829 -0.027,1.812 0.364,1.73 1.788,5.375 0.082,0.24 1.557,4.374 0.773,2.36 0.646,2.403 0.521,2.444 0.397,2.479 0.184,1.385 0.276,1.733 0.362,1.71 0.446,1.683 0.533,1.653 0.807,2.299 0.708,1.757 0.868,1.682 1.022,1.599 1.174,1.508 1.439,1.683 1.299,1.327 1.493,1.158 1.667,0.975 1.815,0.779 2.989,0.789 3.191,0.29 3.288,-0.221 3.285,-0.722 1.064,-0.315 1.44,-0.472 1.415,-0.552 1.383,-0.628 1.349,-0.706 2.586,-1.445 2.655,-1.294 2.772,-0.992 2.841,-0.667 2.856,-0.332 2.558,-0.007 2.488,0.272 2.381,0.55 2.237,0.817 2.353,1.037 1.385,0.655 1.329,0.726 1.276,0.795 1.212,0.858 5.446,4.108 0.232,0.172 0.307,0.23 4.147,3.068 1.943,1.382 2.005,1.316 2.062,1.251 2.122,1.184 2.482,1.265 2.549,1.175 2.615,1.084 2.676,0.989 0.74,0.257 2.017,0.675 2.046,0.629 2.069,0.583 2.094,0.535 1.938,0.47 2.278,0.533 2.299,0.493 2.311,0.458 2.328,0.419 3.27,0.556 1.533,0.257 1.539,0.248 1.541,0.237 1.543,0.227 4.158,0.597 1.936,0.275 1.938,0.266 1.941,0.256 1.945,0.246 2.122,0.262 2.59,0.313 2.6,0.29 2.607,0.265 2.613,0.242 4.325,0.385 0.877,0.075 0.878,0.063 0.881,0.056 0.884,0.047 4.014,0.194 2.827,0.058 2.853,-0.092 2.871,-0.243 2.875,-0.394 2.852,-0.54 2.839,-0.685 2.809,-0.829 2.78,-0.968 0.617,-0.231 2.524,-1.008 2.483,-1.109 2.436,-1.208 2.384,-1.303 4.519,-2.592 0.579,-0.329 0.585,-0.324 0.585,-0.315 0.592,-0.311 4.534,-2.346 2.474,-1.15 2.554,-0.932 2.611,-0.71 2.637,-0.473 2.903,-0.248 2.862,0.049 2.782,0.339 2.67,0.627 0.465,0.137 2.16,0.748 2.044,0.93 1.91,1.099 1.76,1.266 0.924,0.739 1.666,1.456 1.522,1.577 1.365,1.691 1.204,1.796 0.5,0.827 1.072,1.925 0.922,1.999 0.772,2.065 0.614,2.125 0.178,0.712 0.486,2.26 0.337,2.303 0.186,2.336 0.04,2.361 -0.006,0.322 -0.115,2.506 -0.271,2.521 -0.425,2.526 -0.599,2.61 -0.735,2.55 -0.85,2.45 -0.986,2.429 -1.122,2.4 -0.361,0.724 -1.125,2.152 -1.216,2.121 -1.305,2.092 -1.394,2.056 -1.153,1.635 -1.283,1.777 -1.333,1.756 -1.377,1.732 -1.42,1.707 -1.642,1.933 -1.504,1.74 -1.534,1.723 -1.56,1.705 -1.592,1.687 -2.087,2.181 -1.412,1.449 -1.444,1.427 -1.472,1.405 -1.504,1.381 -2.121,1.916 -1.836,1.604 -1.894,1.544 -1.956,1.485 -2.008,1.425 -1.313,0.897 -2.262,1.473 -2.337,1.372 -2.402,1.263 -2.458,1.149 -1.258,0.553 -2.376,0.97 -2.423,0.834 -2.456,0.694 -2.493,0.553 -3.25,0.501 -3.217,0.248 -3.188,-0.006 -3.126,-0.257 -2.315,-0.36 -2.252,-0.503 -2.186,-0.641 -2.109,-0.779 -5.199,-2.132 -0.252,-0.101 -0.255,-0.104 -0.252,-0.101 -0.255,-0.099 -0.473,-0.186 -4.515,-1.668 -4.616,-1.497 -4.71,-1.328 -4.926,-1.185 -0.545,-0.121 -0.412,-0.095 -0.409,-0.095 -0.409,-0.095 -3.895,-0.931 -2.926,-0.781 -2.851,-0.923 -2.765,-1.063 -2.676,-1.198 -2.051,-1.05 -1.987,-1.129 -1.913,-1.21 -1.842,-1.291 -1.557,-1.142 -1.5,-1.139 -1.465,-1.177 -1.423,-1.21 -1.384,-1.248 -0.954,-0.886 -1.811,-1.73 -1.752,-1.774 -1.696,-1.822 -1.711,-1.953 -1.582,-1.906 -1.453,-1.853 -1.399,-1.889 -1.343,-1.924 -0.948,-1.393 -0.964,-1.443 -0.942,-1.458 -0.918,-1.47 -0.899,-1.482 -2.586,-4.354 -0.334,-0.558 -0.341,-0.557 -0.343,-0.554 -0.346,-0.553 -3.053,-4.831 -0.776,-1.174 -0.828,-1.137 -0.883,-1.106 -0.93,-1.071 -2.358,-2.596 -1.247,-1.236 -1.382,-1.116 -1.514,-0.986 -1.628,-0.853 -1.926,-0.895 -2.02,-0.753 -2.177,-0.46 -2.283,-0.156 -2.481,0.172 -2.94,0.614 -2.713,1.031 -2.524,1.432 -2.246,1.781 -1.694,1.814 -1.37,1.987 -1.006,2.107 -0.621,2.172 -0.407,2.1 -0.242,1.693 -0.074,1.681 0.094,1.658 0.266,1.618 0.986,4.53 0.222,0.952 0.246,0.945 0.271,0.938 0.294,0.927 1.392,4.186 0.588,1.629 0.665,1.598 0.745,1.561 0.819,1.521 1.663,2.635 1.896,2.491 2.122,2.33 2.363,2.188 1.396,1.137 1.428,1.059 1.486,0.999 1.534,0.941 3.934,2.294 0.953,0.563 0.945,0.574 0.937,0.581 0.926,0.594 5.756,3.729 0.527,0.338 0.53,0.33 0.538,0.326 0.541,0.321 2.947,1.713 2.495,1.316 2.637,1.125 2.76,0.924 2.87,0.723 2.401,0.435 2.455,0.296 2.496,0.153 2.527,0.015 3.374,-0.075 1.552,-0.02 1.549,0.014 1.542,0.044 1.534,0.079 1.096,0.065 3.561,0.281 3.525,0.41 3.479,0.537 3.43,0.664 3.838,0.82 0.218,0.045 9.085,1.962 0.839,0.199 0.824,0.225 0.808,0.256 0.79,0.283 4.304,1.631 1.695,0.84 1.437,1.123 1.131,1.374 0.788,1.578 0.468,2.343 -0.224,2.468 -0.911,2.441 -1.54,2.266 -0.579,0.677 -1.385,1.416 -1.583,1.249 -1.742,1.053 -1.865,0.831 -3.759,1.408 -1.759,0.601 -1.783,0.496 -1.797,0.389 -1.804,0.277 -2.567,0.319 -2.677,0.24 -2.66,0.06 -2.622,-0.122 -2.571,-0.306 -2.815,-0.557 -2.706,-0.78 -2.582,-0.998 -2.436,-1.209 -1.863,-1.037 -1.214,-0.703 -1.179,-0.743 -1.146,-0.78 -1.108,-0.817 -3.58,-2.745 -1.167,-0.88 -1.183,-0.862 -1.196,-0.849 -1.214,-0.833 -5.48,-3.703 -0.297,-0.202 -0.299,-0.202 -0.296,-0.202 -0.299,-0.202 -7.537,-5.141 -0.259,-0.176 -0.341,-0.242 -5.816,-4.129 -1.154,-0.728 -1.246,-0.615 -1.327,-0.497 -1.395,-0.376 -3.017,-0.661 -2.039,-0.22 -2.116,0.195 -2.089,0.606 -2.012,1.021 -2.073,1.639 -1.527,1.961 -0.921,2.171 -0.246,2.215 0.361,1.868 0.89,1.662 1.361,1.355 1.753,0.968 4.306,1.697 0.681,0.251 0.699,0.225 0.714,0.196 0.727,0.168 2.156,0.452 3.348,0.893 3.152,1.24 2.911,1.57 2.64,1.879 1.295,1.135 1.203,1.211 1.103,1.288 0.999,1.358 2.027,2.975 0.84,1.163 0.907,1.119 0.972,1.075 1.03,1.026 0.974,0.914 2.123,1.768 2.361,1.527 2.575,1.272 2.757,1.003 2.257,0.589 2.336,0.412 2.396,0.234 2.444,0.057 2.668,-0.034 1.952,-0.062 1.962,-0.136 1.97,-0.208 1.967,-0.279 3.641,-0.585 2.041,-0.348 2.035,-0.387 2.035,-0.427 2.032,-0.468 4.138,-0.994 1.715,-0.388 1.715,-0.342 1.719,-0.3 1.719,-0.255 2.53,-0.342 2.798,-0.289 2.785,-0.117 2.753,0.058 2.777,0.241 2.799,0.435 2.659,0.612 2.562,0.793 2.513,1 2.323,1.137 2.139,1.277 1.996,1.429 1.846,1.575 1.761,1.804 1.57,1.944 1.37,2.07 1.192,2.257 0.916,2.184 0.699,2.185 0.512,2.251 0.322,2.302 0.122,1.247 0.138,2.012 0.027,2.03 -0.088,2.046 -0.197,2.055 -0.214,1.735 -0.317,2.188 -0.402,2.19 -0.492,2.189 -0.578,2.184 -0.255,0.898 -0.754,2.469 -0.84,2.458 -0.934,2.445 -1.074,2.545 -1.18,2.566 -1.214,2.43 -1.299,2.407 -1.419,2.441 -1.508,2.425 -1.553,2.331 -1.632,2.297 -1.761,2.325 -1.822,2.268 -1.849,2.162 -1.92,2.117 -1.993,2.071 -0.589,0.595 -1.835,1.799 -1.897,1.751 -1.953,1.701 -2.013,1.65 -1.892,1.506 -1.7,1.303 -1.753,1.243 -1.806,1.183 -1.849,1.117 -2.658,1.541 -2.03,1.09 -2.095,0.958 -2.151,0.82 -2.189,0.677 -2.823,0.774 -2.089,0.458 -2.098,0.235 -2.07,0.006 -2.015,-0.221 -1.724,-0.29 -2.261,-0.611 -2.004,-1.016 -1.668,-1.38 -1.267,-1.692 -0.824,-1.97 -0.324,-2.141 0.188,-2.226 0.697,-2.219 0.538,-1.246 0.8,-1.597 1.001,-1.534 1.18,-1.446 1.347,-1.34 5.16,-4.635 0.334,-0.3 0.341,-0.297 0.341,-0.294 0.344,-0.292 5.169,-4.339 1.566,-1.383 1.48,-1.45 1.395,-1.513 1.298,-1.57 1.552,-1.979 1.334,-1.884 1.123,-1.966 0.894,-2.027 0.657,-2.065 0.238,-0.915 0.416,-2.32 0.046,-2.296 -0.326,-2.227 -0.69,-2.114 -1.094,-2.035 -1.45,-1.823 -1.774,-1.572 -2.065,-1.288 -0.993,-0.514 -1.81,-0.822 -1.917,-0.651 -2.012,-0.475 -2.086,-0.295 -5.894,-0.566 -0.542,-0.049 -0.544,-0.044 -0.544,-0.04 -0.546,-0.034 -5.986,-0.347 -2.109,-0.185 -2.073,-0.306 -2.02,-0.427 -1.967,-0.544 -0.964,-0.301 -2.557,-0.947 -2.392,-1.192 -2.196,-1.423 -1.981,-1.641 -1.595,-1.665 -1.384,-1.816 -1.161,-1.95 -0.93,-2.066 -1.357,-3.557 -0.242,-0.653 -0.224,-0.659 -0.213,-0.664 -0.198,-0.67 -1.492,-5.277 -0.474,-1.337 -0.646,-1.261 -0.807,-1.167 -0.966,-1.066 -1.319,-1.283 -1.748,-1.304 -2.103,-0.882 -2.349,-0.414 -2.483,0.075 -2.498,0.565 -2.381,1.022 -2.147,1.432 -1.801,1.77 -1.68,2.01 -1.005,1.315 -0.859,1.375 -0.71,1.424 -0.556,1.456 -2.223,6.9 -0.075,0.239 -0.101,0.319 -2.446,7.97 -0.305,1.001 -0.297,0.999 -0.294,1.004 -0.285,1.001 -0.793,2.81 -0.797,2.701 -0.862,2.693 -0.932,2.688 -0.995,2.675 -0.942,2.374 -0.995,2.364 -1.045,2.353 -1.097,2.342 -0.653,1.361 -0.955,1.94 -0.994,1.93 -1.032,1.919 -1.07,1.906 -1.03,1.795 -1.206,2.035 -1.27,2.013 -1.328,1.989 -1.39,1.963 -1.988,2.626 -2.094,2.569 -2.197,2.509 -2.297,2.446 -1.749,1.756 -1.803,1.718 -1.85,1.678 -1.898,1.638 -3.884,3.266 -0.679,0.581 -0.673,0.59 -0.663,0.598 -0.651,0.605 -4.013,3.78 -1.516,1.547 -1.37,1.641 -1.211,1.722 -1.042,1.787 -0.131,0.248 -1.215,2.77 -0.774,2.832 -0.319,2.837 0.149,2.781 0.393,1.941 0.631,1.862 0.86,1.763 1.082,1.644 2.262,3.01 0.609,0.856 0.555,0.886 0.507,0.914 0.453,0.94 0.888,1.988 0.805,2.382 0.347,2.525 -0.118,2.605 -0.584,2.624 -0.837,2.178 -1.143,2.108 -1.428,2.002 -1.687,1.86 -2.424,2.387 -1.143,1.079 -1.194,1.036 -1.242,0.991 -1.285,0.944 -3.527,2.48 -1.813,1.166 -1.915,1.016 -1.987,0.854 -2.049,0.684 -0.482,0.139 -3.169,0.683 -3.172,0.226 -3.082,-0.238 -2.916,-0.692 -2.028,-0.81 -1.858,-1.044 -1.656,-1.262 -1.426,-1.461 -3.631,-4.317 -0.151,-0.179 -3.428,-3.98 -1.552,-1.659 -1.689,-1.547 -1.824,-1.427 -1.95,-1.299 -1.365,-0.838 -1.729,-0.963 -1.831,-0.827 -1.923,-0.688 -2.003,-0.544 -1.784,-0.412 -2.366,-0.401 -2.447,-0.135 -2.499,0.133 -2.513,0.399 -3.025,0.839 -2.923,1.208 -2.756,1.55 -2.524,1.858 -2.966,2.477 -0.608,0.518 -0.592,0.527 -0.584,0.538 -0.57,0.549 -0.999,0.982 -3.199,2.956 -3.402,2.779 -3.581,2.586 -3.746,2.381 -1.358,0.81 -0.651,0.395 -0.637,0.407 -0.631,0.42 -0.62,0.433 -4.315,3.075 -1.91,1.572 -1.633,1.79 -1.307,1.959 -0.947,2.071 -0.42,1.163 -0.517,2.174 0.012,2.146 0.537,2.021 1.042,1.803 0.727,0.947 1.354,1.31 1.738,0.926 2.012,0.484 2.167,0.014 2.681,-0.623 2.473,-1.274 2.041,-1.809 1.428,-2.18 1.653,-3.545 0.125,-0.257 0.17,-0.34 2.632,-4.955 1.34,-2.17 1.63,-2.037 1.9,-1.869 2.128,-1.665 2.498,-1.527 2.67,-1.227 2.783,-0.9 2.838,-0.555 0.822,-0.109 2.283,-0.202 2.258,0.002 2.207,0.207 2.137,0.409 2.223,0.541 2.004,0.556 1.937,0.678 1.863,0.795 1.778,0.91 2.418,1.347 1.552,0.904 1.506,0.956 1.459,1.008 1.407,1.058 4.215,3.301 0.511,0.392 0.522,0.38 0.53,0.372 0.541,0.36 3.716,2.42 1.959,1.084 2.146,0.828 2.295,0.556 2.405,0.277 2.758,-0.027 2.788,-0.378 2.762,-0.721 2.678,-1.049 1.567,-0.724 1.831,-0.916 1.765,-1.03 1.687,-1.139 1.599,-1.238 3.815,-3.16 1.101,-0.877 1.139,-0.839 1.172,-0.799 1.205,-0.756 2.436,-1.468 2.572,-1.36 2.703,-1.064 2.787,-0.752 2.816,-0.422 2.61,-0.091 2.551,0.203 2.444,0.494 2.305,0.778 1.034,0.426 1.948,0.921 1.812,1.095 1.658,1.257 1.487,1.411 0.965,1.024 1.391,1.611 1.231,1.718 1.069,1.814 0.898,1.901 0.557,1.332 0.719,1.893 0.596,1.941 0.474,1.981 0.344,2.02 0.244,1.752 0.236,2.008 0.148,2.028 0.064,2.042 -0.025,2.056 -0.062,2.001 -0.093,2.02 -0.149,2.025 -0.205,2.03 -0.258,2.032 -0.275,1.942 -0.318,2.124 -0.361,2.125 -0.402,2.125 -0.441,2.124 -0.365,1.677 -0.493,2.167 -0.536,2.165 -0.577,2.162 -0.619,2.16 -0.489,1.647 -0.658,2.12 -0.715,2.114 -0.772,2.107 -0.823,2.096 -0.599,1.471 -0.935,2.188 -1.016,2.171 -1.092,2.15 -1.168,2.129 -0.656,1.152 -1.269,2.124 -1.365,2.088 -1.46,2.048 -1.547,2.005 -0.842,1.048 -1.625,1.927 -1.731,1.863 -1.826,1.794 -1.921,1.719 -1.081,0.923 -2.01,1.622 -2.111,1.513 -2.203,1.398 -2.282,1.276 -1.221,0.638 -2.366,1.132 -2.436,0.963 -2.486,0.786 -2.522,0.603 -1.216,0.244 -2.531,0.393 -2.52,0.157 -2.485,-0.078 -2.414,-0.315 -0.926,-0.169 -2.345,-0.579 -2.192,-0.854 -2.001,-1.114 -1.776,-1.357 -0.228,-0.2 -1.622,-1.714 -1.277,-1.948 -0.903,-2.139 -0.512,-2.285 -0.106,-2.341 0.283,-2.384 0.672,-2.38 1.044,-2.324 1.378,-2.571 0.697,-1.224 0.759,-1.201 0.823,-1.175 0.884,-1.147 2.13,-2.638 1.576,-2.044 1.462,-2.097 1.351,-2.143 1.232,-2.185 0.185,-0.35 1.24,-2.508 1.068,-2.546 0.897,-2.575 0.716,-2.593 0.164,-0.671 0.447,-2.156 0.304,-2.156 0.16,-2.148 0.012,-2.131 -0.035,-1.242 -0.169,-2.232 -0.378,-2.184 -0.584,-2.121 -0.788,-2.044 -1.209,-2.343 -1.483,-2.19 -1.746,-2.018 -2.065,-1.889 -1.832,-1.379 -1.887,-1.18 -2.005,-1.037 -2.115,-0.887 -4.747,-1.777 -0.473,-0.18 -0.473,-0.184 -0.47,-0.186 -0.467,-0.191 -1.929,-0.796 -3.405,-1.532 -3.257,-1.728 -3.095,-1.918 -2.929,-2.1 -1.369,-1.056 -0.497,-0.375 -0.514,-0.36 -0.523,-0.349 -0.539,-0.334 -3.291,-1.989 -2.306,-1.113 -2.557,-0.712 -2.734,-0.287 -2.828,0.144 -2.743,0.547 -2.679,0.935 -2.53,1.293 -2.316,1.617 -2.155,1.74 -1.157,1.009 -1.065,1.084 -0.962,1.15 -0.853,1.205 -2.355,3.645 -0.793,1.596 -0.367,1.655 0.076,1.623 0.52,1.499 1.569,1.865 2.323,1.14 2.774,0.267 2.86,-0.64 2.237,-0.865 3.106,-1.259 3.903,-1.29 3.99,-0.745 3.974,-0.182 3.85,0.386 1.215,0.248 1.187,0.308 1.156,0.366 1.123,0.422 6.458,2.637 0.606,0.242 0.61,0.234 0.613,0.227 0.622,0.219 5.27,1.816 1.77,0.71 1.656,0.87 1.529,1.02 1.383,1.161 1.846,2.075 1.419,2.349 0.966,2.568 0.486,2.73 0.069,0.786 0.067,1.556 -0.064,1.575 -0.195,1.585 -0.325,1.586 -1.06,4.285 -0.403,1.365 -0.529,1.35 -0.653,1.323 -0.769,1.288 -1.873,2.866 -1.293,1.629 -1.608,1.414 -1.851,1.139 -2.023,0.819 -2.406,0.498 -2.385,0.006 -2.23,-0.487 -1.957,-0.953 -2.27,-1.494 -1.012,-0.738 -0.918,-0.824 -0.818,-0.904 -0.711,-0.977 -2.569,-3.945 -0.762,-1.113 -0.815,-1.08 -0.865,-1.047 -0.913,-1.01 -2.05,-2.165 -1.496,-1.414 -1.67,-1.257 -1.829,-1.089 -1.968,-0.911 -0.886,-0.356 -2.349,-0.772 -2.491,-0.485 -2.591,-0.189 -2.653,0.109 -2.844,0.442 -2.812,0.771 -2.726,1.085 -2.628,1.4 -2.297,1.555 -2.071,1.743 -1.844,1.925 -1.592,2.075 -0.497,0.733 -1.268,2.072 -1.04,2.141 -0.8,2.189 -0.552,2.214 -0.35,1.822 -0.303,1.927 -0.164,1.921 -0.028,1.906 0.113,1.885 0.392,4.056 0.116,1.069 0.136,1.065 0.157,1.06 0.18,1.054 0.687,3.792 0.341,1.942 0.311,1.95 0.285,1.956 0.261,1.962 0.111,0.895 0.295,2.544 0.246,2.555 0.196,2.565 0.147,2.574 0.042,0.862 0.079,2.023 0.042,2.029 0.006,2.035 -0.029,2.039 -0.058,2.367 -0.067,1.859 -0.118,1.865 -0.165,1.869 -0.218,1.873 -0.314,2.468 -0.305,2.012 -0.393,2.012 -0.48,2.009 -0.573,2.004 -0.601,1.952 -0.716,2.089 -0.853,2.066 -0.992,2.038 -1.119,1.999 -0.756,1.261 -1.384,2.111 -1.566,2.026 -1.74,1.929 -1.898,1.815 -0.681,0.605 -2.122,1.731 -2.285,1.557 -2.417,1.366 -2.527,1.161 -0.324,0.133 -2.782,0.989 -2.839,0.715 -2.867,0.432 -2.849,0.142 -2.793,-0.149 -2.701,-0.438 -2.576,-0.72 -2.412,-0.994 -0.238,-0.115 -2.138,-1.192 -1.944,-1.405 -1.729,-1.605 -1.492,-1.786 -0.399,-0.542 -1.212,-1.857 -1.002,-1.972 -0.779,-2.072 -0.554,-2.155 -0.193,-0.952 -0.338,-2.174 -0.155,-2.216 0.032,-2.246 0.215,-2.264 0.208,-1.529 0.339,-2.067 0.451,-2.066 0.565,-2.061 0.673,-2.05 0.722,-2.022 0.754,-2.002 0.821,-1.988 0.892,-1.976 0.96,-1.958 0.781,-1.535 1.156,-2.199 1.218,-2.181 1.275,-2.161 1.337,-2.14 0.659,-1.03 1.376,-2.098 1.419,-2.079 1.465,-2.06 1.511,-2.039 1.956,-2.592 0.95,-1.248 0.96,-1.244 0.969,-1.238 0.978,-1.232 3.035,-3.792 1.091,-1.381 1.075,-1.39 1.057,-1.4 1.038,-1.408 1.623,-2.23 1.491,-2.105 1.427,-2.132 1.361,-2.157 1.298,-2.181 0.472,-0.82 1.25,-2.249 1.162,-2.272 1.081,-2.294 0.992,-2.314 0.454,-1.107 0.831,-2.154 0.734,-2.168 0.641,-2.179 0.542,-2.185 0.458,-2.031 0.372,-1.91 0.257,-1.908 0.141,-1.902 0.027,-1.889 -0.021,-1.177 -0.177,-2.511 -0.436,-2.451 -0.688,-2.372 -0.941,-2.273 -0.493,-1.031 -0.852,-1.558 -1.008,-1.468 -1.162,-1.367 -1.311,-1.255 -1.246,-1.085 -1.851,-1.357 -2.096,-1.08 -2.299,-0.778 -2.456,-0.463 -2.739,-0.135 -2.796,0.238 -2.792,0.607 -2.733,0.965 -2.457,1.213 -2.277,1.475 -2.067,1.714 -1.813,1.918 -1.007,1.21 -1.257,1.636 -1.105,1.704 -0.947,1.76 -0.776,1.802 -2.212,5.819 -0.105,0.278 -0.104,0.279 -0.102,0.278 -0.101,0.279 -1.637,4.597 -0.943,2.475 -1.064,2.455 -1.179,2.428 -1.291,2.396 -1.438,2.421 -1.554,2.379 -1.665,2.332 -1.771,2.279 -0.951,1.172 -1.339,1.615 -1.382,1.592 -1.423,1.565 -1.464,1.539 -3.39,3.488 -0.908,0.929 -0.916,0.923 -0.921,0.918 -0.928,0.913 -4.749,4.643 -0.904,0.881 -0.91,0.879 -0.91,0.876 -0.917,0.873 -3.129,2.972 -1.805,1.693 -1.833,1.673 -1.858,1.652 -1.882,1.631 -0.673,0.576 -2.299,1.93 -2.335,1.891 -2.376,1.855 -2.412,1.815 -0.322,0.238 -2.233,1.621 -2.265,1.585 -2.295,1.547 -2.322,1.51 -1.213,0.773 -2.14,1.335 -2.165,1.292 -2.195,1.251 -2.219,1.208 -1.65,0.876 -2.282,1.172 -2.314,1.109 -2.342,1.046 -2.369,0.98 -1.763,0.702 -2.333,0.879 -2.361,0.791 -2.382,0.701 -2.399,0.609 -1.423,0.334 -2.657,0.549 -2.665,0.404 -2.662,0.258 -2.648,0.111 -0.36,0.005 -2.853,-0.053 -2.807,-0.238 -2.746,-0.424 -2.778,-0.633 -2.54,-0.765 -2.337,-0.9 -2.229,-1.056 -2.11,-1.208 -0.555,-0.347 -1.906,-1.315 -1.757,-1.461 -1.595,-1.598 -1.425,-1.727 -0.445,-0.595 -1.225,-1.844 -1.007,-1.964 -0.779,-2.067 -0.547,-2.152 -0.079,-0.405 -0.308,-2.353 -0.015,-2.409 0.277,-2.438 0.568,-2.44 0.867,-2.456 1.151,-2.402 1.42,-2.321 1.675,-2.212 0.318,-0.382 1.729,-1.911 1.894,-1.793 2.045,-1.66 2.18,-1.514 1.528,-0.979 2.017,-1.225 2.078,-1.128 2.132,-1.026 2.178,-0.921 3.703,-1.462 1.55,-0.595 1.559,-0.565 1.568,-0.536 1.577,-0.507 6.633,-2.061 0.844,-0.265 0.843,-0.27 0.841,-0.274 0.841,-0.278 5.653,-1.89 2.023,-0.712 2.003,-0.773 1.983,-0.837 1.955,-0.896 2.325,-1.109 2.271,-1.159 2.199,-1.279 2.121,-1.393 2.031,-1.501 1.04,-0.815 2.04,-1.721 1.886,-1.851 1.717,-1.965 1.533,-2.064 0.265,-0.39 1.42,-2.312 1.158,-2.389 0.89,-2.443 0.61,-2.471 0.326,-2.506 0.028,-2.48 -0.271,-2.426 -0.567,-2.347 -0.146,-0.469 -0.749,-2.031 -0.955,-1.939 -1.157,-1.832 -1.351,-1.711 -1.12,-1.28 -1.292,-1.382 -1.386,-1.307 -1.475,-1.229 -1.56,-1.146 -2.868,-1.974 -1.193,-0.802 -1.218,-0.776 -1.239,-0.752 -1.26,-0.726 -3.213,-1.799 -1.679,-0.926 -1.691,-0.907 -1.711,-0.886 -1.727,-0.865 -1.999,-0.989 -1.999,-0.961 -2.029,-0.922 -2.055,-0.883 -2.143,-0.869 -2.902,-1.098 -2.887,-0.997 -2.929,-0.923 -2.97,-0.848 -2.302,-0.597 -2.323,-0.553 -2.345,-0.507 -2.363,-0.462 -2.26,-0.418 -1.978,-0.347 -1.991,-0.313 -2.004,-0.279 -2.015,-0.244 -2.195,-0.247 -2.502,-0.241 -2.524,-0.166 -2.543,-0.09 -2.558,-0.013 -3.211,0.089 -3.225,0.209 -3.234,0.327 -3.238,0.444 -4.313,0.67 -0.449,0.07 -0.449,0.072 -0.449,0.073 -0.449,0.074 -3.983,0.667 -3.406,0.541 -3.406,0.481 -3.406,0.423 -3.404,0.363 -2.438,0.224 -2.436,0.193 -2.432,0.163 -2.43,0.132 -4.402,0.212 -1.189,0.055 -1.188,0.051 -1.187,0.048 -1.187,0.043 -5.974,0.21 -1.635,0.064 -1.637,0.076 -1.639,0.089 -1.64,0.101 -3.061,0.199 -2.659,0.199 -2.662,0.25 -2.665,0.301 -2.666,0.352 -3.18,0.485 -3.178,0.558 -3.174,0.628 -3.166,0.7 -0.423,0.098 -2.438,0.586 -2.433,0.626 -2.426,0.665 -2.418,0.703 -3.426,1.025 -1.626,0.492 -1.624,0.502 -1.621,0.512 -1.619,0.523 -6.803,2.218 -0.703,0.229 -0.702,0.231 -0.703,0.232 -0.702,0.232 -6.635,2.2 -1.693,0.566 -1.692,0.575 -1.689,0.584 -1.686,0.592 -2.028,0.718 -2.976,1.074 -2.965,1.11 -2.953,1.144 -2.941,1.181 -2.65,1.098 -2.638,1.127 -2.627,1.155 -2.614,1.184 -4.243,1.947 -0.763,0.348 -0.764,0.344 -0.767,0.34 -0.768,0.336 -5.696999,2.473 -1.933,0.803 -1.956,0.739 -1.976,0.675 -1.992,0.609 -2.786,0.802 -2.361,0.603 -2.378,0.454 -2.382,0.302 -2.372,0.149 -1.521,0.046 -2.579,-0.041 -2.515,-0.282 -2.425,-0.517 -2.308,-0.749 -0.377,-0.146 -2.342,-1.077 -2.127,-1.345 -1.8785,-1.592 -1.6076,-1.821 -1.2797,-1.969 -0.9711,-2.122 -0.6527,-2.251 -0.3313,-2.447 0.0052,-2.47 0.3458,-2.4 0.6757,-2.392 0.9945,-2.348 1.3654,-2.371 1.6759,-2.245 1.9594,-2.082 2.254,-1.92 2.294,-1.588 2.401,-1.339 2.52,-1.105 2.603,-0.857 1.786,-0.493 2.078,-0.511 2.09,-0.388 2.092,-0.263 2.085,-0.137 5.563,-0.197 0.909,-0.027 0.907,-0.016 0.905,-0.006 0.903,0.004 4.721,0.05 2.503,0.01 2.510999,-0.024 2.515,-0.056 2.52,-0.089 1.681,-0.071 2.448,-0.124 2.452,-0.166 2.456,-0.207 2.459,-0.249 2.262,-0.248 2.251,-0.273 2.251,-0.325 2.25,-0.376 2.247,-0.428 2.474,-0.5 2.333,-0.514 2.321,-0.599 2.306,-0.68 2.287,-0.763 1.717,-0.606 2.485,-0.948 2.437,-1.076 2.379,-1.197 2.312,-1.315 0.779,-0.47 2.366,-1.53 2.253,-1.669 2.126,-1.797 2.063,-1.993 1.996,-2.206 1.734,-2.233 1.534,-2.325 1.326,-2.399 1.092,-2.419 0.872,-2.458 0.646,-2.482 0.416,-2.489 0.042,-0.339 0.186,-2.361 -0.012,-2.336 -0.21,-2.301 -0.408,-2.253 -0.231,-1.016 -0.525,-2.001 -0.655,-1.954 -0.783,-1.902 -0.908,-1.844 -1.366,-2.555 -0.666,-1.208 -0.698,-1.189 -0.73,-1.171 -0.761,-1.153 -2.447,-3.606 -0.752,-1.137 -0.722,-1.157 -0.69,-1.175 -0.66,-1.19 -1.182,-2.198 -1.008,-2.037 -0.87,-2.101 -0.728,-2.157 -0.586,-2.21 -0.488,-2.55 -0.301,-2.6 -0.113,-2.636 0.075,-2.664 0.06,-0.948 0.162,-1.914 0.244,-1.919 0.325,-1.921 0.406,-1.922 1.412,-6.084 0.057,-0.246 0.076,-0.328 1.366,-6.027 0.417,-1.991 0.35,-1.989 0.282,-1.988 0.214,-1.988 0.169,-1.858 0.14,-2.176 0.021,-2.162 -0.095,-2.143 -0.213,-2.12 -0.163,-1.262 -0.358,-2.144 -0.515,-2.096 -0.671,-2.045 -0.824,-1.98 -0.408,-0.884 -1.016,-1.949 -1.201,-1.848 -1.379,-1.736 -1.549,-1.612 -0.568,-0.539 -1.737,-1.478 -1.913,-1.309 -2.072,-1.125 -2.214,-0.935 -0.533,-0.195 -2.417,-0.744 -2.537,-0.499 -2.626,-0.249 -2.79,0.009 -2.915,0.275 -2.809,0.549 -2.771,0.818 -2.697,1.076 -2.601,1.329 -2.459,1.556 -2.284,1.768 -2.08,1.954 -0.407,0.42 -1.709,1.924 -1.519,2.028 -1.313,2.116 -1.097,2.184 -0.566,1.27 -0.855,2.112 -0.692,2.135 -0.527,2.147 -0.358,2.154 -0.274,2.157 -0.196,1.877 -0.108,1.869 -0.022,1.859 0.066,1.847 0.298,5.031 0.042,0.663 0.047,0.662 0.051,0.661 0.056,0.661 0.475,5.343 0.127,1.664 0.09,1.674 0.05,1.679 0.011,1.685 -0.013,2.555 -0.059,2.108 -0.157,2.118 -0.253,2.125 -0.349,2.129 -0.25,1.336 -0.507999,2.324 -0.654,2.315 -0.797,2.302 -0.938,2.279 -0.426,0.959 -1.075,2.215 -1.233,2.171 -1.386,2.115 -1.532,2.051 -0.731,0.919 -1.676,1.958 -1.834,1.852 -1.979,1.74 -2.111,1.608 -1.057,0.751 -2.198,1.43 -2.318,1.249 -2.412,1.056 -2.484,0.852 -1.121,0.334 -2.593,0.63 -2.611,0.351 -2.588,0.063 -2.525,-0.221 -0.598,-0.09 -2.52,-0.55 -2.3422,-0.882 -2.1152,-1.194 -1.8439,-1.481 -1.5885,-1.813 -1.2168,-2.051 -0.8174,-2.239 -0.4044,-2.447 5e-4,-2.341 0.3605,-2.299 0.7085,-2.286 1.0431,-2.232 1.0472,-1.902 0.9163,-1.544 1.0257,-1.5 1.1295,-1.456 1.229,-1.396 3.3101,-3.546 1.018,-1.117 0.986,-1.137 0.955,-1.155 0.923,-1.171 1.959,-2.553 1.505,-2.109 1.333,-2.178 1.152,-2.236 0.965,-2.282 0.256,-0.675 0.766,-2.346 0.533,-2.36 0.296,-2.36 0.057,-2.342 -0.021,-0.787 -0.188,-2.191 -0.442,-2.124 -0.691,-2.043 -0.934,-1.937 -0.29,-0.517 -1.271,-1.923 -1.552,-1.736 -1.811,-1.523 -2.044,-1.288 -2.312,-1.064 -2.491,-0.78 -2.6332,-0.486 -2.7347,-0.184 -1.7449,-0.021 -1.8894,0.032 -1.903,0.139 -1.9083,0.247 -1.9062,0.35 -4.7623,1.009 -1.5294,0.305 -1.5319,0.264 -1.5329,0.224 -1.5325,0.184 -3.2892,0.353 -2.583,0.185 -2.5571,-0.006 -2.5131,-0.193 -2.4522,-0.381 -0.9057,-0.177 -2.3798,-0.587 -2.2633,-0.803 -2.1244,-1.01 -1.9650001,-1.207 -0.7322,-0.508 -1.7174,-1.364 -1.4935,-1.558 -1.2501,-1.728 -0.9898,-1.876 -0.2847,-0.647 -0.7079,-2.06 -0.3625,-2.171 -0.0106,-2.244 0.3419,-2.273 0.7692,-2.469 1.1652,-2.401 1.5358,-2.278 1.8721,-2.105 0.4513,-0.445 1.7305,-1.556 1.8856001,-1.408 2.0179,-1.241 2.1264,-1.059 6.132,-2.724 0.34,-0.152 0.452,-0.207 5.7449,-2.66 2.2736,-1.173 2.1567,-1.361 2.0152,-1.533 1.8513,-1.688 2.0209,-2.259 1.7075,-2.425 1.3656,-2.551 0.9993,-2.635 0.6819,-2.235 0.3306,-1.176 0.2775,-1.178 0.2241,-1.178 0.1696,-1.179 0.3079,-2.541 0.4437,-2.583 0.7023,-2.575 0.9559,-2.547 1.2015,-2.498 1.3443,-2.282 1.5431,-2.206 1.7314,-2.112 1.9066,-2.004 0.5947,-0.581 1.9153,-1.745 2.0509,-1.616 2.173,-1.481 2.278,-1.335 2.886,-1.406 2.989,-1.163 3.059,-0.907 3.221,-0.658 2.57,-0.335 2.439,-0.148 2.415,0.017 2.375,0.182 5.939,0.672 0.407,0.045 0.545,0.057 5.556,0.546 2.631999,0.179 2.666,0.03 2.692,-0.121 2.704,-0.276 3.047,-0.485 3.034,-0.676 3.005,-0.86 3.065,-1.077 2.606,-1.073 2.453,-1.153 2.392,-1.271 2.324,-1.384 1.022,-0.643 2.227,-1.461 2.159,-1.544 2.088,-1.624 2.011,-1.7 2.766,-2.433 1.074,-0.958 1.059,-0.968 1.045,-0.983 1.029,-0.995 2.581,-2.525 1.916,-1.826 1.973,-1.776 2.027,-1.731 2.08,-1.679 2.598,-1.974 2.67,-1.897 2.736,-1.812 2.798,-1.727 0.794,-0.474 1.954,-1.139 1.978,-1.1 2,-1.064 2.02,-1.026 2.758,-1.367 2.005,-0.982 2.016,-0.958 2.026,-0.935 2.037,-0.911 4.194,-1.847 1.387,-0.62 1.381,-0.633 1.376,-0.643 1.37,-0.659 1.604,-0.778 3.228,-1.621 3.181,-1.706 3.131,-1.789 3.078,-1.873 0.494,-0.309 1.787,-1.143 1.764,-1.177 1.739,-1.205 1.714,-1.235 1.123,-0.823 2.508,-1.908 2.433,-1.986 2.354,-2.057 2.271,-2.127 1.948,-1.95 1.876,-2 1.803,-2.045 1.726,-2.093 0.442,-0.552 1.645,-2.12 1.575,-2.156 1.503,-2.188 1.43,-2.218 2.157,-3.46 0.501,-0.814 0.489,-0.816 0.477,-0.825 0.465,-0.824 0.998,-1.798 1.826,-3.064 2.035,-2.985 2.233,-2.892 2.423,-2.786 1.059,-1.151 0.876,-0.982 0.838,-1.004 0.801,-1.025 0.761,-1.045 1.611,-2.296 1.462,-2.344 1.156,-2.44 0.834,-2.497 0.5,-2.519 0.477,-2.432 0.788,-2.412 1.088,-2.357 1.375,-2.276 2.28,-3.355 0.518,-0.746 0.536,-0.737 0.552,-0.731 0.569,-0.721 3.32,-4.123 1.284,-1.723 1.128,-1.785 0.97,-1.841 0.799,-1.882 0.139,-0.366 0.858,-2.851 0.433,-2.866 10e-4,-2.829 -0.428,-2.746 -0.589,-1.938 -0.814,-1.848 -1.03,-1.74 -1.237,-1.615 -1.424,-1.647 -1.211,-1.31 -1.305,-1.236 -1.394,-1.158 -1.478,-1.077 -3.554,-2.42 -0.948,-0.634 -0.962,-0.617 -0.976,-0.604 -0.989,-0.588 -5.225,-3.043 -0.885,-0.512 -0.889,-0.51 -0.891,-0.506 -0.894,-0.504 -6.978,-3.903 -0.25,-0.141 -0.333,-0.186 -7.304,-4.067 -0.78,-0.437 -0.779,-0.438 -0.776,-0.441 -0.775,-0.44 -4.412,-2.524 -1.529,-0.891 -1.513,-0.909 -1.497,-0.926 -1.479,-0.947 -1.521,-0.989 -2.063,-1.381 -2.014,-1.431 -1.965,-1.482 -1.915,-1.531 -1.568,-1.293 -1.217,-1.033 -1.179,-1.064 -1.141,-1.099 -1.103,-1.128 -2.243,-2.372 -1.171,-1.325 -1.071,-1.394 -0.968,-1.46 -0.86,-1.517 -1.016,-1.95 -0.822,-1.853 -0.588,-1.947 -0.346,-2.024 -0.102,-2.076 0.005,-0.505 0.231,-2.614 0.638,-2.618 1.033,-2.575 1.408,-2.481 1.521,-2.059 1.766,-1.923 1.986,-1.758 2.177,-1.566 1.164,-0.752 2.119,-1.264 2.209,-1.112 2.282,-0.948 2.336,-0.782 1.886,-0.557 2.39,-0.635 2.408,-0.508 2.415,-0.375 2.413,-0.24 2.583,-0.187 2.089,-0.118 2.081,-0.05 2.069,0.013 2.055,0.082 5.239,0.295 1.027,0.061 1.026,0.067 1.024,0.077 1.022,0.083 5.941,0.506 1.674,0.132 1.679,0.11 1.685,0.084 1.69,0.061 4.045,0.059 4.07,-0.074 4.088,-0.203 4.099,-0.332 3.418,-0.331 7.36,-0.736 2.101,-0.1 2.059,0.117 1.989,0.337 1.891,0.551 0.722,0.258 2.331,1.09 1.995,1.479 1.593,1.822 1.14,2.099 0.582,1.956 0.214,2.058 -0.159,2.116 -0.533,2.124 -0.663,1.956 -0.668,1.718 -0.831,1.682 -0.983,1.634 -1.132,1.575 -4.108,5.265 -0.25,0.323 -0.249,0.323 -0.243,0.324 -0.244,0.324 -3.044,4.105 -1.558,2.232 -1.407,2.29 -1.251,2.34 -1.091,2.384 -0.977,2.566 -0.788,2.59 -0.594,2.606 -0.394,2.604 -0.056,0.469 -0.186,2.229 -0.053,2.211 0.082,2.195 0.214,2.168 0.135,1.02 0.356,2.236 0.472,2.202 0.588,2.166 0.706,2.124 1.243,3.432 0.293,0.778 0.308,0.769 0.325,0.761 0.339,0.756 1.835,3.943 0.702,1.754 0.518,1.823 0.323,1.881 0.131,1.928 -0.161,2.885 -0.58,2.901 -0.99,2.875 -1.383,2.796 -0.747,1.307 -0.751,1.246 -0.811,1.22 -0.871,1.194 -0.928,1.168 -4.149,4.993 -0.64,0.809 -0.59,0.83 -0.541,0.852 -0.492,0.871 -1.994,3.767 -0.769,1.965 -0.249,1.997 0.279,1.921 0.796,1.737 1.345,1.528 1.788,1.132 2.12,0.667 2.331,0.161 3.526,-0.142 1.025,-0.07 1.029,-0.125 1.031,-0.183 1.022,-0.238 7.834,-2.03 0.854,-0.232 0.847,-0.248 0.845,-0.268 0.841,-0.287 5.113,-1.805 2.17,-0.915 2.044,-1.163 1.878,-1.39 1.725,-1.647 1.915,-2.47 1.318,-2.608 0.725,-2.706 0.105,-2.693 -0.32,-1.884 -0.645,-1.778 -0.955,-1.631 -1.244,-1.447 -2.671,-2.604 -0.744,-0.762 -0.702,-0.799 -0.661,-0.828 -0.612,-0.858 -1.986,-2.944 -1.132,-1.742 -1.061,-1.785 -0.99,-1.822 -0.921,-1.857 -1.906,-4.043 -0.258,-0.538 -0.268,-0.534 -0.273,-0.532 -0.282,-0.528 -2.144,-3.95 -0.874,-1.825 -0.688,-1.909 -0.498,-1.978 -0.297,-2.033 -0.088,-2.87 0.285,-2.913 0.663,-2.918 1.025,-2.887 0.379,-0.899 0.751,-1.648 0.848,-1.622 0.949,-1.592 1.04,-1.554 2.196,-3.101 1.075,-1.571 1.016,-1.593 0.965,-1.613 0.906,-1.639 1.605,-3.264 1.367,-3.315 1.125,-3.352 0.877,-3.376 0.349,-1.725 0.287,-1.727 0.216,-1.723 0.153,-1.721 0.302,-4.389 0.103,-1.196 0.143,-1.197 0.189,-1.198 0.226,-1.199 0.386,-1.857 0.769,-2.921 1.085,-2.886 1.389,-2.821 1.68,-2.732 1.394,-1.914 1.531,-1.839 1.662,-1.759 1.783,-1.669 2.172,-1.916 1.465,-1.345 1.402,-1.399 1.329,-1.445 1.289,-1.531 2.203,-2.978 1.875,-3.056 1.563,-3.157 1.237,-3.225 0.537,-1.793 0.435,-1.8 0.331,-1.803 0.224,-1.801 0.635,-6.634 0.676,-6.892 0.202,-1.672 0.282,-1.676 0.359,-1.673 0.437,-1.671 0.779,-2.735 0.682,-2.044 0.869,-2.016 1.05,-1.971 1.226,-1.91 0.748,-1.075 1.664,-2.126 1.921,-1.972 2.144,-1.788 2.34,-1.576 2.703,-1.438 2.84,-1.138 2.926,-0.819 2.963,-0.486 1.525,-0.164 2.016,-0.151 1.997,-0.024 1.973,0.105 1.938,0.23 5.062,0.778 1.072,0.175 1.065,0.191 1.06,0.208 1.052,0.227 5.385,1.201 1.655,0.362 1.663,0.347 1.671,0.333 1.675,0.317 1.943,0.357 2.839,0.491 2.859,0.436 2.88,0.378 2.897,0.319 2.732,0.245 2.747,0.197 2.757,0.146 2.773,0.092 4.57,0.112 0.682,0.019 0.676,0.026 0.677,0.033 0.678,0.036 5.75,0.346 2.114,0.198 2.063,0.337 2.009,0.473 1.937,0.608 1.166,0.415 2.4,1.017 2.198,1.28 1.969,1.525 1.711,1.747 1.387,1.879 1.108,2.04 0.815,2.178 0.526,2.392 0.223,2.461 -0.093,2.401 -0.387,2.419 -0.714,2.508 -1.002,2.493 -1.237,2.332 -1.488,2.246 -1.727,2.13 -0.956,1.074 -1.501,1.595 -1.605,1.518 -1.698,1.441 -1.785,1.352 -4.601,3.288 -0.721,0.51 -0.724,0.505 -0.731,0.497 -0.737,0.49 -5.488,3.621 -1.518,1.033 -1.482,1.076 -1.446,1.115 -1.404,1.155 -2.386,2.02 -1.853,1.681 -1.714,1.787 -1.566,1.88 -1.463,2.047 -1.576,2.647 -1.229,2.646 -0.925,2.701 -0.607,2.724 -0.26,2.23 -0.041,2.21 0.178,2.175 0.397,2.123 0.423,1.761 0.475,1.738 0.582,1.702 0.682,1.66 0.788,1.611 1.615,3.06 0.653,1.201 0.681,1.185 0.71,1.169 0.741,1.152 3.007,4.566 0.446,0.686 0.441,0.692 0.435,0.695 0.424,0.698 2.382,3.949 0.881,1.552 0.801,1.591 0.721,1.632 0.641,1.664 0.113,0.318 0.854,2.789 0.619,2.866 0.372,2.932 0.133,2.981 -0.048,1.992 -0.154,2 -0.263,2.01 -0.364,2.01 -0.732,3.507 -0.25,1.356 -0.184,1.355 -0.116,1.352 -0.048,1.345 -0.032,2.895 0.125,2.17 0.419,2.098 0.707,2.002 0.989,1.876 0.387,0.621 1.311,1.75 1.607,1.531 1.877,1.279 2.107,1.008 0.798,0.309 2.149,0.648 2.294,0.329 2.382,10e-4 2.541,-0.352 2.856,-0.8 2.604,-1.189 2.38,-1.561 2.078,-1.877 1.469,-1.789 1.162,-1.922 0.833,-2.013 0.479,-2.054 0.83,-5.72 0.035,-0.226 0.962,-5.027 1.307,-4.875 1.67,-4.839 2.023,-4.781 0.171,-0.371 2.188,-4.748 1.134,-2.612 1.001,-2.635 0.866,-2.656 0.731,-2.667 0.544,-2.421 0.43,-2.423 0.318,-2.42 0.203,-2.413 0.174,-2.931 0.065,-1.214 0.045,-1.212 0.03,-1.21 0.009,-1.205 v -4.735 l 0.009,-1.498 0.026,-1.501 0.044,-1.503 0.059,-1.505 0.178,-3.848 0.098,-1.668 0.146,-1.674 0.19,-1.674 0.235,-1.676 0.528,-3.428 0.313,-1.729 0.408,-1.729 0.501,-1.723 0.594,-1.713 1.104,-2.938 0.776,-1.806 0.958,-1.764 1.129,-1.705 1.29,-1.628 1.452,-1.681 1.665,-1.688 1.903,-1.482 2.091,-1.246 2.236,-0.977 0.297,-0.109 2.708,-0.757 2.746,-0.317 2.681,0.131 2.523,0.58 2.039,0.869 1.786,1.183 1.491,1.458 1.149,1.699 0.626,1.163 0.763,1.7 0.518,1.801 0.267,1.874 0.006,1.925 -0.141,2.308 -0.193,1.884 -0.344,1.889 -0.491,1.883 -0.64,1.87 -1.044,2.728 -0.724,1.788 -0.8,1.773 -0.876,1.755 -0.951,1.732 -2.795,4.886 -0.392,0.678 -0.395,0.675 -0.401,0.677 -0.405,0.672 -1.094,1.81 -1.931,3.235 -1.886,3.25 -1.839,3.266 -1.794,3.279 -0.893,1.657 -0.422,0.783 -0.422,0.777 -0.425,0.781 -0.428,0.779 -3.731,6.768 -0.398,0.717 -0.398,0.716 -0.4,0.718 -0.401,0.715 -3.619,6.437 -0.519,0.935 -0.504,0.939 -0.492,0.94 -0.48,0.947 -2.1,4.206 -0.884,1.897 -0.773,1.919 -0.661,1.936 -0.545,1.947 -0.247,0.992 -0.522,2.579 -0.275,2.574 -0.025,2.55 0.221,2.507 0.434,2.319 0.654,2.249 0.867,2.168 1.076,2.072 1.099,1.879 0.749,1.186 0.838,1.136 0.921,1.077 1,1.019 3.413,3.234 0.93,0.748 1.063,0.604 1.176,0.451 1.265,0.288 1.993,0.314 2.285,0.005 2.283,-0.656 2.029,-1.245 1.561,-1.703 0.731,-1.411 0.353,-1.471 -0.046,-1.445 -0.445,-1.34 -2.364,-4.663 -0.258,-0.485 -0.277,-0.473 -0.3,-0.461 -0.319,-0.449 -2.511,-3.389 -1.237,-1.869 -1.033,-1.982 -0.812,-2.084 -0.594,-2.165 -0.398,-2.522 -0.105,-2.584 0.185,-2.623 0.475,-2.635 0.154,-0.652 0.56,-2.052 0.715,-2.038 0.866,-2.015 1.008,-1.976 0.369,-0.665 1.497,-2.499 1.693,-2.422 1.877,-2.331 2.051,-2.228 0.605,-0.618 1.653,-1.613 1.728,-1.551 1.801,-1.484 1.869,-1.415 2.44,-1.769 1.699,-1.257 1.662,-1.294 1.63,-1.33 1.595,-1.361 1.445,-1.263 2.129,-1.902 2.084,-1.943 2.03,-1.982 1.982,-2.017 1.938,-2.016 1.123,-1.179 1.113,-1.19 1.1,-1.195 1.088,-1.205 3.563,-3.971 1.022,-1.144 1.018,-1.147 1.015,-1.15 1.009,-1.151 2.894,-3.309 1.366,-1.569 1.36,-1.574 1.354,-1.579 1.347,-1.583 1.609,-1.899 1.592,-1.892 1.577,-1.897 1.567,-1.908 1.548,-1.914 0.48,-0.594 1.823,-2.285 1.802,-2.296 1.777,-2.307 1.758,-2.318 1.683,-2.264 1.664,-2.276 1.642,-2.285 1.621,-2.295 3.313,-4.732 4.076,-5.831 1.242,-1.743 1.282,-1.725 1.316,-1.707 1.351,-1.688 2.319,-2.755 2.413,-2.697 2.504,-2.64 2.62,-2.599 1.605,-1.524 1.606,-1.47 1.635,-1.449 1.664,-1.421 3.517,-2.959 1.107,-0.942 1.1,-0.953 1.087,-0.961 1.074,-0.971 2.477,-2.257 2.016,-1.9 1.949,-1.952 1.877,-2.001 1.802,-2.049 1.922,-2.344 1.823,-2.397 1.722,-2.443 1.616,-2.488 0.988,-1.587 0.896,-1.466 0.87,-1.477 0.838,-1.485 0.811,-1.492 2.326,-4.38 0.669,-1.209 0.711,-1.195 0.755,-1.178 0.797,-1.162 2.326,-3.278 1.361,-1.741 1.533,-1.639 1.694,-1.519 1.833,-1.384 0.374,-0.259 2.669,-1.617 2.851,-1.293 2.97,-0.937 3.024,-0.565 2.416,-0.174 2.374,0.074 2.305,0.322 2.201,0.566 3.04,0.972 1.392,0.484 1.358,0.539 1.316,0.598 1.272,0.658 5.475,2.992 0.592,0.323 0.583,0.33 0.583,0.332 0.581,0.335 7.211,4.223 0.3,0.176 0.303,0.178 0.3,0.178 0.3,0.176 5.859,3.459 1.24,0.735 1.236,0.742 1.227,0.752 1.224,0.754 3.643,2.256 1.346,0.85 1.329,0.865 1.315,0.884 1.299,0.899 3.033,2.134 1.36,0.989 1.318,1.028 1.278,1.069 1.235,1.103 2.463,2.277 1.182,1.17 1.09,1.242 0.994,1.308 0.896,1.37 1.416,2.341 0.823,1.61 0.595,1.709 0.36,1.787 0.118,1.846 -0.002,0.514 -0.263,2.618 -0.765,2.613 -1.25,2.53 -1.695,2.374 -1.69,1.783 -1.92,1.592 -2.119,1.374 -2.271,1.127 -2.639,1.127 -1.795,0.707 -1.827,0.605 -1.851,0.497 -1.865,0.388 -4.304,0.763 -1.802,0.296 -1.803,0.249 -1.802,0.197 -1.797,0.15 -3.541,0.247 -2.255,0.136 -2.255,0.101 -2.247,0.059 -2.241,0.021 -1.839,0.001 -2.61,-0.018 -2.604,-0.055 -2.592,-0.095 -2.587,-0.13 -4.397,-0.256 -0.925,-0.05 -0.924,-0.039 -0.929,-0.028 -0.932,-0.02 -4.212,-0.062 -2.697,0.035 -2.718,0.179 -2.727,0.329 -2.729,0.474 -3.034,0.701 -3.007,0.879 -2.963,1.049 -2.905,1.217 -0.639,0.29 -2.248,1.071 -2.203,1.159 -2.15,1.247 -2.097,1.328 -2.013,1.332 -1.906,1.297 -1.866,1.342 -1.831,1.384 -1.788,1.428 -2.613,2.143 -1.517,1.262 -1.501,1.278 -1.478,1.295 -1.462,1.314 -3.244,2.952 -1.298,1.187 -1.29,1.192 -1.284,1.202 -1.272,1.204 -2.524,2.4 -1.746,1.651 -1.755,1.646 -1.768,1.638 -1.774,1.629 -2.596,2.355 -2.615,2.339 -2.638,2.321 -2.653,2.303 -2.852,2.461 -0.408,0.35 -0.407,0.352 -0.407,0.352 -0.405,0.352 -7.556,6.564 -0.297,0.256 -0.296,0.258 -0.299,0.26 -0.297,0.256 -6.653,5.745 -0.867,0.753 -0.861,0.757 -0.857,0.759 -0.854,0.766 -3.189,2.872 -1.973,1.741 -2.018,1.699 -2.057,1.661 -2.099,1.618 -2.676,1.965 -2.735,1.895 -2.789,1.822 -2.842,1.754 -2.584,1.547 -1.008,0.593 -1.015,0.582 -1.025,0.567 -1.035,0.553 -4.277,2.253 -2.119,1.193 -2.042,1.307 -1.959,1.417 -1.86,1.517 -0.649,0.559 -2.192,2.065 -1.981,2.213 -1.748,2.344 -1.498,2.448 -0.564,1.031 -0.9,1.826 -0.712,1.861 -0.523,1.887 -0.326,1.893 -0.316,2.619 -0.063,1.812 0.251,1.758 0.56,1.657 0.858,1.526 1.928,2.067 2.518,1.515 2.96,0.879 3.231,0.19 0.372,-0.02 1.732,-0.175 1.73,-0.353 1.702,-0.531 1.647,-0.695 6.141,-2.952 0.651,-0.317 0.647,-0.327 0.64,-0.336 0.637,-0.343 5.539,-3.046 1.882,-1.045 1.875,-1.062 1.863,-1.075 1.855,-1.088 2.491,-1.477 2.102,-1.225 2.119,-1.193 2.137,-1.165 2.157,-1.135 1.094,-0.565 2.666,-1.341 2.696,-1.287 2.723,-1.226 2.749,-1.168 2.829,-1.133 2.852,-1.066 2.872,-1.005 2.889,-0.939 0.46,-0.144 2.614,-0.792 2.623,-0.743 2.631,-0.69 2.641,-0.643 3.427,-0.801 1.456,-0.348 1.454,-0.374 1.45,-0.393 1.445,-0.412 0.473,-0.139 4.046,-1.283 3.999,-1.452 3.941,-1.62 3.873,-1.783 1.569,-0.778 1.552,-0.803 1.541,-0.831 1.524,-0.856 3.961,-2.268 1.748,-0.975 1.77,-0.934 1.794,-0.89 1.813,-0.851 1.234,-0.558 3.072,-1.31 3.124,-1.157 3.166,-1.008 3.2,-0.849 2.561,-0.565 2.572,-0.463 2.573,-0.358 2.572,-0.259 2.874,-0.229 1.81,-0.128 1.811,-0.094 1.804,-0.061 1.798,-0.028 1.481,-0.008 3.221,0.042 3.196,0.169 3.159,0.297 3.115,0.422 2.403,0.416 2.367,0.492 2.337,0.565 2.297,0.641 5.407,1.604 0.347,0.105 0.463,0.138 6.547,1.991 1.762,0.531 1.766,0.517 1.774,0.511 1.777,0.498 4.512,1.25 1.23,0.349 1.221,0.363 1.217,0.377 1.206,0.389 3.434,1.136 2.191,0.772 2.136,0.858 2.083,0.934 2.025,1.014 0.398,0.21 2.363,1.335 2.26,1.455 2.151,1.569 2.033,1.682 1.738,1.612 1.636,1.697 1.527,1.777 1.42,1.852 0.877,1.221 1.046,1.503 0.99,1.535 0.936,1.566 0.882,1.597 1.361,2.569 0.747,1.447 0.724,1.456 0.699,1.469 0.674,1.481 2.256,5.082 0.202,0.458 0.202,0.46 0.199,0.461 0.196,0.462 1.983,4.692 0.76,1.696 0.822,1.667 0.885,1.635 0.953,1.601 1.679,2.525 1.839,2.423 1.996,2.316 2.147,2.203 1.388,1.291 1.441,1.245 1.493,1.199 1.543,1.147 2.057,1.479 1.568,1.1 1.599,1.07 1.625,1.039 1.653,1.011 1.541,0.922 2.028,1.187 2.054,1.156 2.081,1.126 2.105,1.092 1.505,0.766 1.817,0.912 1.83,0.894 1.841,0.876 1.854,0.861 5.911,2.7 6.103,2.788 1.758,0.817 1.742,0.835 1.729,0.853 1.716,0.874 1.456,0.751 2.207,1.171 2.171,1.211 2.14,1.253 2.104,1.294 2.258,1.461 2.214,1.508 2.171,1.554 2.203,1.666 1.905,1.502 1.783,1.473 1.751,1.502 1.711,1.537 0.692,0.633 1.652,1.54 1.622,1.567 1.591,1.588 1.561,1.615 0.527,0.555 1.612,1.724 1.583,1.748 1.553,1.769 1.522,1.791 0.426,0.511 1.451,1.757 1.422,1.773 1.397,1.793 1.372,1.808 0.852,1.138 1.166,1.575 1.151,1.584 1.14,1.596 1.12,1.602 2.148,3.099 0.618,0.895 0.616,0.898 0.612,0.901 0.61,0.902 3.635,5.4 0.329,0.483 0.325,0.484 0.329,0.486 0.331,0.482 3.773,5.515 0.568,0.826 0.573,0.823 0.583,0.821 0.585,0.818 2.912,4.033 0.86,1.161 0.888,1.138 0.917,1.122 0.95,1.098 2.234,2.529 1.246,1.333 1.329,1.262 1.413,1.194 1.487,1.124 1.724,1.228 1.799,1.155 1.929,1.006 2.04,0.846 2.145,0.679 0.854,0.232 2.562,0.552 2.662,0.285 2.728,0.017 2.763,-0.252 2.79,-0.525 2.757,-0.787 2.687,-1.044 2.588,-1.282 0.599,-0.333 2.223,-1.343 2.109,-1.496 1.969,-1.637 1.83,-1.764 0.94,-0.988 1.69,-1.87 1.54,-1.949 1.39,-2.02 1.25,-2.079 0.65,-1.172 1.11,-2.146 0.98,-2.181 0.84,-2.206 0.71,-2.223 0.32,-1.094 0.59,-2.302 0.48,-2.305 0.36,-2.304 0.23,-2.302 0.08,-0.953 0.12,-2.308 0.02,-2.296 -0.08,-2.284 -0.19,-2.26 -0.1,-0.964 -0.27,-2.216 -0.36,-2.195 -0.44,-2.175 -0.52,-2.149 -0.32,-1.222 -0.57,-2.008 -0.61,-1.99 -0.67,-1.968 -0.73,-1.944 -0.64,-1.641 -0.73,-1.812 -0.76,-1.795 -0.79,-1.783 -0.83,-1.766 -1.01,-2.091 -0.78,-1.617 -0.81,-1.605 -0.82,-1.599 -0.84,-1.588 -1.25,-2.348 -0.85,-1.566 -0.865,-1.561 -0.875,-1.55 -0.893,-1.544 -1.373,-2.358 -0.899,-1.523 -0.925,-1.507 -0.95,-1.492 -0.97,-1.48 -1.317,-1.964 -1.116,-1.624 -1.163,-1.594 -1.209,-1.564 -1.257,-1.534 -0.845,-1.009 -1.526,-1.741 -1.599,-1.684 -1.675,-1.627 -1.744,-1.568 -2.077,-1.711 -2.165,-1.63 -2.246,-1.545 -2.329,-1.456 -0.96,-0.569 -1.617,-0.94 -1.647,-0.903 -1.676,-0.868 -1.701,-0.834 -6.106,-2.9 -2.442,-1.11 -2.555,-1.816 -1.541,-2.583 z"
     fill="#0f000a"
     stroke="#6a5fdb"
     stroke-width="2.72236"
     id="path1"
     style="fill:none" />
  <path
     d="m 746.92386,331.82685 -1.581,0.871 -1.645,0.927 -1.017,1.456 -0.121,1.593 0.811,1.304 1.84,1.548 0.541,0.562 0.401,0.653 0.247,0.726 0.089,0.772 0.046,5.705 -0.055,1.108 -0.182,1.116 -0.306,1.111 -0.429,1.097 -1.545,3.447 -1.104,1.73 -1.602,1.44 -1.95,1.019 -2.121,0.5 -2.022,-0.046 -1.826,-0.567 -1.468,-1.036 -0.989,-1.419 -1.704,-3.742 -0.158,-0.366 -0.144,-0.372 -0.129,-0.38 -0.112,-0.384 -0.99,-3.651 -0.893,-2.319 -1.35,-2.096 -1.773,-1.808 -2.145,-1.474 -1.961,-0.919 -2.132,-0.654 -2.261,-0.384 -2.352,-0.101 -5.687,0.098 -0.361,0.007 -0.363,0.01 -0.359,0.015 -0.363,0.015 -1.002,0.051 -4.895,0.129 -4.852,-0.101 -4.798,-0.334 -4.728,-0.562 -1.447,-0.21 -0.251,-0.035 -2.743,-0.388 -4.126,-0.55 -4.146,-0.495 -4.167,-0.436 -4.18,-0.38 -1.309,-0.112 -0.792,-0.067 -0.794,-0.072 -0.79,-0.078 -0.791,-0.078 -4.88,-0.506 -2.385,-0.21 -2.405,-0.143 -2.424,-0.074 -2.436,-0.006 -3.305,0.102 -3.322,0.226 -3.329,0.351 -3.333,0.475 -0.473,0.075 -2.231,0.387 -2.23,0.437 -2.223,0.486 -2.215,0.54 -4.279,1.087 -1.421,0.352 -1.422,0.33 -1.427,0.308 -1.429,0.288 -6.586,1.272 -1.078,0.233 -1.071,0.282 -1.061,0.332 -1.049,0.375 -3.781,1.456 -2.339,1.145 -2.077,1.521 -1.723,1.827 -1.287,2.05 -0.744,1.996 -0.298,2.02 0.162,1.967 0.616,1.838 1.499,3.134 0.379,0.744 0.425,0.721 0.466,0.695 0.504,0.673 3.203,4.014 0.758,1.207 0.465,1.343 0.162,1.435 -0.151,1.483 -0.248,1.208 -0.779,2.01 -1.429,1.796 -1.936,1.404 -2.25,0.87 -1.731,0.246 -1.684,-0.11 -1.547,-0.454 -1.323,-0.78 -4.091,-3.202 -0.385,-0.293 -0.4,-0.283 -0.41,-0.268 -0.421,-0.258 -2.422,-1.431 -2.653,-1.258 -2.935,-0.808 -3.132,-0.334 -3.24,0.146 -2.072,0.343 -2.053,0.532 -2.011,0.716 -1.946,0.889 -5.618,2.875 -0.559,0.289 -0.555,0.296 -0.552,0.301 -0.548,0.307 -8.147,4.611 -0.595,0.347 -0.583,0.359 -0.575,0.373 -0.565,0.389 -4.567,3.233 -1.703,1.458 -1.352,1.698 -0.936,1.86 -0.474,1.929 v 1.846 l 0.457,1.741 0.888,1.556 1.284,1.3 2.468,1.948 1.061,0.757 1.144,0.667 1.217,0.574 1.285,0.473 7.055,2.264 0.271,0.087 0.273,0.086 0.273,0.083 0.274,0.084 7.879,2.368 0.948,0.321 0.91,0.379 0.868,0.437 0.823,0.495 2.785,1.812 1.579,1.401 1.043,1.774 0.435,2.023 -0.202,2.142 -0.439,1.319 -0.672,1.278 -0.882,1.196 -1.068,1.088 -3.019,2.674 -1.495,1.542 -1.204,1.706 -0.871,1.814 -0.515,1.874 -0.133,2.085 0.339,1.999 0.794,1.843 1.224,1.609 2.151,2.229 0.824,0.792 0.89,0.736 0.954,0.678 1.01,0.613 5.366,3.019 0.78,0.45 0.767,0.463 0.753,0.481 0.74,0.494 3.717,2.544 1.489,1.14 1.335,1.277 1.176,1.397 1.044,1.577 1.205,2.549 0.71,2.656 0.24,2.783 -0.232,2.849 -0.39,1.808 -0.577,1.796 -0.755,1.768 -0.926,1.728 -3.563,5.989 -0.091,0.152 -2.109,3.507 -1.872,2.939 -2.038,2.872 -2.197,2.796 -2.353,2.711 -1.255,1.378 -0.804,0.861 -0.832,0.841 -0.86,0.821 -0.882,0.801 -4.116,3.634 -1.288,1.261 -1.132,1.363 -0.955,1.448 -0.767,1.512 -1.055,2.424 -0.542,1.791 -0.084,1.787 0.379,1.694 0.872,1.582 1.685,1.604 2.162,0.977 2.501,0.323 2.619,-0.352 2.117,-0.795 1.908,-1.199 1.585,-1.53 1.162,-1.77 2.372,-4.743 0.24,-0.499 0.224,-0.505 0.206,-0.505 0.191,-0.51 2.091,-5.907 0.603,-1.521 0.73,-1.499 0.848,-1.462 0.96,-1.421 2.285,-3.144 1.187,-1.407 1.397,-1.258 1.579,-1.077 1.714,-0.87 3.116,-0.946 3.158,-0.211 2.968,0.539 2.566,1.248 1.649,1.133 0.767,0.571 0.709,0.626 0.646,0.677 0.581,0.725 3.399,4.616 0.644,0.896 0.618,0.915 0.595,0.926 0.57,0.939 0.249,0.424 1.653,3.059 1.419,3.168 1.183,3.272 0.941,3.361 0.303,1.351 0.268,1.363 0.228,1.374 0.189,1.381 0.333,2.735 0.22,2.16 0.129,2.178 0.039,2.191 -0.049,2.204 -0.192,2.825 -0.337,2.834 -0.481,2.838 -0.623,2.837 -1.068,4.348 -0.039,0.164 -1.26,5.27 -0.422,2.347 -0.141,2.334 0.139,2.294 0.42,2.23 0.784,2.364 1.11,2.22 1.42,2.051 1.712,1.856 1.584,1.494 0.92,0.914 0.864,0.956 0.812,0.996 0.752,1.033 0.542,0.784 1.524,2.608 1.119,2.803 0.7,2.953 0.269,3.067 -0.044,1.835 -0.197,1.85 -0.342,1.852 -0.493,1.85 -1.405,4.588 -0.294,0.909 -0.333,0.902 -0.368,0.898 -0.399,0.89 -1.845,3.903 -1.121,1.976 -1.44,1.849 -1.718,1.672 -1.955,1.456 -0.811,0.527 -2.455,1.314 -2.631,0.886 -2.701,0.422 -2.654,-0.063 -2.48,-0.541 -2.223,-0.995 -1.864,-1.407 -1.434,-1.758 -0.448,-0.722 -0.851,-1.679 -0.536,-1.809 -0.213,-1.901 0.111,-1.954 0.649,-4.612 0.108,-0.688 0.126,-0.691 0.144,-0.687 0.161,-0.691 0.695,-2.79 0.687,-2.996 0.571,-3 0.456,-2.997 0.338,-2.991 0.102,-1.107 0.13,-1.519 0.104,-1.519 0.077,-1.513 0.054,-1.514 0.05,-1.94 0.102,-2.564 0.172,-2.57 0.243,-2.575 0.31,-2.58 0.368,-2.497 0.433,-2.498 0.494,-2.5 0.563,-2.497 0.643,-2.709 0.287,-1.231 0.276,-1.231 0.267,-1.231 0.258,-1.23 0.831,-4.063 0.356,-1.827 0.323,-1.826 0.288,-1.825 0.252,-1.824 0.533,-4.097 0.135,-1.207 0.097,-1.208 0.053,-1.201 0.015,-1.198 -0.033,-6.398 -0.036,-0.606 -0.103,-0.589 -0.166,-0.57 -0.229,-0.546 -1.838,-3.748 -0.978,-1.078 -1.501,-0.51 -1.717,0.17 -1.577,0.812 -0.482,0.435 -0.402,0.49 -0.314,0.532 -0.211,0.555 -1.652,5.85 -0.497,1.518 -0.623,1.497 -0.749,1.473 -0.868,1.433 -0.208,0.314 -1.979,2.649 -2.331,2.444 -2.638,2.201 -2.902,1.915 -1.856,1.085 -1.085,0.612 -1.103,0.58 -1.117,0.546 -1.134,0.514 -5.565,2.415 -1.581,0.697 -1.576,0.719 -1.562,0.734 -1.556,0.754 -5.467,2.694 -1.108,0.549 -1.104,0.555 -1.104,0.558 -1.098,0.565 -5.857,3.021 -1.309,0.69 -1.296,0.713 -1.284,0.736 -1.268,0.757 -3.75,2.284 -1.908,1.238 -1.83,1.329 -1.745,1.421 -1.649,1.505 -1.134,1.094 -1.835,1.936 -1.623,2.057 -1.399,2.163 -1.155,2.241 -0.961,2.481 -0.653,2.517 -0.339,2.519 -0.016,2.492 0.165,2.822 0.076,1.006 0.11,0.999 0.145,0.992 0.177,0.98 0.452,2.252 0.386,2.661 0.107,2.722 -0.172,2.755 -0.454,2.773 -0.56,2.213 -0.733,2.198 -0.903,2.174 -1.067,2.135 -1.38,2.532 -0.814,1.445 -0.859,1.429 -0.906,1.411 -0.948,1.394 -0.315,0.447 -2.182,2.944 -2.353,2.855 -2.514,2.761 -2.668,2.659 -1.508,1.393 -1.549,1.359 -1.588,1.322 -1.629,1.286 -2.946,2.269 -1.565,1.236 -1.53,1.266 -1.498,1.304 -1.459,1.333 -2.728,2.681 -2.575,2.786 -2.415,2.882 -2.248,2.975 -2.138,2.986 -0.204,0.281 -4.086,5.645 -1.275,1.672 -1.367,1.62 -1.458,1.567 -1.542,1.508 -0.914,0.855 -2.26,1.95 -2.421,1.789 -2.566,1.614 -2.689,1.424 -2.596,1.147 -2.665,0.963 -2.717,0.774 -2.742,0.576 -2.808,0.487 -1.63,0.259 -1.627,0.212 -1.625,0.165 -1.624,0.117 -4.379,0.253 -1.988,0.136 -1.992,0.175 -1.991,0.215 -1.996,0.256 -3.376,0.465 -2.129,0.335 -2.125,0.415 -2.119,0.496 -2.106,0.574 -3.538,1.034 -1.817,0.593 -1.778,0.705 -1.737,0.814 -1.681,0.917 -1.782,1.044 -2.358,1.589 -2.109,1.848 -1.812,2.066 -1.47,2.234 -1.12,2.415 -0.698,2.479 -0.256,2.482 0.188,2.425 0.058,0.339 0.551,2.122 0.886,1.993 1.206,1.827 1.507,1.627 0.401,0.368 1.87,1.485 2.112,1.232 2.318,0.961 2.488,0.674 0.298,0.06 2.61,0.383 2.691,0.098 2.739,-0.19 2.748,-0.475 1.719,-0.386 2.077,-0.529 2.052,-0.651 2.019,-0.768 1.977,-0.883 6.496,-3.127 0.287,-0.137 0.381,-0.181 5.955,-2.806 2.333,-1.043 2.37,-0.949 2.406,-0.853 2.428,-0.755 1.256,-0.363 2.647,-0.688 2.668,-0.541 2.675,-0.392 2.669,-0.24 0.963,-0.06 2.585,-0.074 2.556,0.097 2.508,0.269 2.445,0.438 1.959,0.426 1.885,0.495 1.795,0.652 1.694,0.802 1.577,0.947 1.304,0.874 1.812,1.46 1.482,1.728 1.12,1.952 0.729,2.131 0.327,2.356 -0.127,2.435 -0.576,2.448 -1.009,2.397 -1.042,2.011 -0.725,1.3 -0.814,1.271 -0.896,1.235 -0.977,1.194 -2.596,2.998 -1.519,1.57 -1.704,1.421 -1.862,1.249 -1.992,1.059 -3.198,1.204 -3.31,0.683 -3.294,0.134 -3.165,-0.416 -2.32,-0.523 -0.918,-0.187 -0.93,-0.153 -0.945,-0.116 -0.956,-0.081 -3.124,-0.204 -3.148,-0.132 -3.176,0.013 -3.2,0.159 -3.212,0.305 -4.251,0.498 -0.475,0.055 -0.472,0.052 -0.475,0.051 -0.473,0.049 -6.98,0.706 -1.855,0.211 -1.857,0.255 -1.86,0.302 -1.853,0.346 -3.92,0.882 -3.892,1.08 -3.847,1.273 -3.815,1.474 -1.771,0.757 -1.721,0.783 -1.707,0.822 -1.685,0.859 -3.9,2.043 -1.707,0.86 -1.731,0.806 -1.754,0.75 -1.779,0.696 -2.189,0.816 -2.729,0.915 -2.77,0.726 -2.796,0.533 -2.798,0.334 -2.945,0.136 -2.907,-0.089 -2.846,-0.313 -2.764,-0.536 -1.19,-0.283 -1.97,-0.522 -1.918,-0.617 -1.862,-0.71 -1.798,-0.803 -5.799,-2.778 -0.154,-0.074 -4.631,-2.236 -2.417,-1.116 -2.475,-1.037 -2.524,-0.959 -2.577,-0.877 -2.55,-0.777 -2.592,-0.698 -2.632,-0.62 -2.667,-0.541 -1.328,-0.248 -2.104,-0.371 -2.118,-0.332 -2.132,-0.294 -2.146,-0.253 -0.445,-0.048 -3.233,-0.31 -3.255,-0.23 -3.276,-0.148 -3.295,-0.069 -3.811,-0.032 -0.529,-0.009 -0.527,-0.017 -0.526,-0.027 -0.523,-0.035 -5.863,-0.441 -2.053,-0.323 -1.898,-0.644 -1.686,-0.944 -1.422,-1.217 -0.863,-0.907 -1.174,-1.686 -0.604,-1.959 0.005,-2.109 0.614,-2.128 1.285,-2.144 1.844,-1.857 2.271,-1.437 2.534,-0.914 1.249,-0.3 1.977,-0.332 1.96,-0.046 1.889,0.242 1.765,0.523 2.283,0.892 2.045,0.66 2.16,0.429 2.245,0.191 2.299,-0.048 1.874,-0.137 2.453,-0.274 2.45,-0.463 2.428,-0.648 2.385,-0.829 5.486,-2.133 0.455,-0.175 0.456,-0.173 0.46,-0.169 0.459,-0.167 3.444,-1.236 3.475,-1.185 3.506,-1.068 3.533,-0.951 3.618,-0.847 2.237,-0.462 2.171,-0.4 2.169,-0.353 2.173,-0.306 4.507,-0.587 1.394,-0.206 1.396,-0.258 1.389,-0.307 1.384,-0.358 1.796,-0.496 3.341,-1.119 3.218,-1.471 3.036,-1.796 2.801,-2.092 1.657,-1.485 1.53,-1.582 1.393,-1.669 1.242,-1.742 1.593,-2.423 1.131,-1.644 1.218,-1.608 1.292,-1.566 1.369,-1.523 2.634,-2.606 2.844,-2.432 3.037,-2.241 3.209,-2.034 1.308,-0.767 1.181,-0.673 1.197,-0.646 1.212,-0.615 1.229,-0.588 4.916,-2.285 1.702,-0.875 1.617,-1.005 1.524,-1.124 1.409,-1.235 2.918,-2.351 3.305,-1.877 3.564,-1.324 3.679,-0.724 1.032,-0.115 1.201,-0.103 1.192,-0.046 1.185,0.016 1.169,0.074 3.721,0.332 2.592,0.108 2.63,-0.137 2.65,-0.378 2.632,-0.614 2.899,-0.965 2.804,-1.242 2.667,-1.501 2.497,-1.741 2.248,-1.737 1.032,-0.821 1.003,-0.85 0.977,-0.876 0.942,-0.901 4.122,-4.051 1.185,-1.149 1.198,-1.14 1.214,-1.122 1.229,-1.113 2.736,-2.445 1.785,-1.586 1.803,-1.571 1.813,-1.559 1.832,-1.547 4.791,-4.017 0.296,-0.246 0.299,-0.25 0.299,-0.246 0.299,-0.245 4.181,-3.427 2.14,-1.826 2.054,-1.897 1.965,-1.968 1.872,-2.031 0.243,-0.276 1.792,-2.124 1.679,-2.182 1.564,-2.24 1.441,-2.285 1.768,-2.954 0.548,-0.975 0.497,-0.996 0.436,-1.006 0.377,-1.016 1.362,-4.012 0.427,-1.894 0.003,-1.869 -0.427,-1.775 -0.836,-1.607 -1.5,-1.624 -1.959,-1.204 -2.309,-0.712 -2.628,-0.181 -2.16,0.236 -2.037,0.552 -1.947,0.851 -1.796,1.124 -2.784,2.052 -1.36,1.076 -1.267,1.161 -1.169,1.234 -1.06,1.298 -3.043,4.038 -0.908,1.172 -0.945,1.153 -0.979,1.133 -1.013,1.113 -1.399,1.494 -2.258,2.251 -2.43,2.112 -2.587,1.961 -2.726,1.796 -2.26,1.305 -2.33,1.189 -2.388,1.063 -2.439,0.941 -1.548,0.552 -2.384,0.796 -2.405,0.704 -2.423,0.607 -2.437,0.512 -1.613,0.307 -2.536,0.426 -2.541,0.323 -2.533,0.211 -2.521,0.104 -1.087,0.02 -2.641,-0.019 -2.609,-0.165 -2.565,-0.313 -2.512,-0.454 -2.783,-0.692 -2.688,-0.87 -2.58,-1.049 -2.513,-1.251 -2.057,-1.209 -1.896,-1.29 -1.786,-1.4 -1.667,-1.504 -1.031,-0.996 -1.397,-1.418 -1.322,-1.476 -1.241,-1.53 -1.162,-1.583 -0.827,-1.185 -1.215,-1.823 -1.139,-1.866 -1.062,-1.907 -0.984,-1.95 -0.348,-0.732 -0.945,-2.064 -0.871,-2.096 -0.794,-2.13 -0.722,-2.156 -0.166,-0.527 -0.654,-2.228 -0.577,-2.252 -0.498,-2.277 -0.418,-2.299 -0.081,-0.506 -0.329,-2.302 -0.242,-2.321 -0.152,-2.343 -0.064,-2.355 -0.004,-0.44 0.033,-2.428 0.13,-2.437 0.233,-2.447 0.347,-2.531 0.467,-2.619 0.563,-2.537 0.672,-2.531 0.783,-2.521 0.885,-2.503 0.993,-2.487 1.095,-2.468 1.197,-2.443 0.219,-0.427 1.184,-2.219 1.26,-2.193 1.333,-2.168 1.41,-2.14 1.112,-1.636 1.192,-1.693 1.254,-1.663 1.313,-1.631 1.375,-1.599 1.901,-2.143 1.51,-1.611 1.602,-1.541 1.697,-1.467 1.777,-1.387 1.466,-1.082 2.231,-1.517 2.358,-1.34 2.46,-1.154 2.633,-0.988 3.024,-0.854 2.961,-0.541 2.958,-0.251 2.918,0.042 2.632,0.299 2.537,0.545 2.413,0.787 2.266,1.018 0.705,0.365 1.974,1.142 1.832,1.301 1.669,1.451 1.5,1.589 1.346,1.582 1.06,1.314 0.981,1.366 0.905,1.409 0.824,1.458 2.988,5.646 2.921,5.547 0.843,1.519 0.909,1.481 0.976,1.443 1.043,1.401 1.247,1.602 1.377,1.634 1.51,1.533 1.638,1.43 1.758,1.318 0.572,0.399 2.124,1.329 2.274,1.156 2.404,0.967 2.524,0.775 2.671,0.586 2.757,0.378 2.819,0.165 2.866,-0.046 0.48,-0.026 2.6,-0.219 2.602,-0.376 2.595,-0.531 2.576,-0.685 1.12,-0.332 2.528,-0.83 2.485,-0.97 2.428,-1.108 2.363,-1.24 1.069,-0.599 2.252,-1.367 2.14,-1.506 2.017,-1.64 1.879,-1.76 2.084,-2.289 1.835,-2.423 1.572,-2.536 1.292,-2.623 0.213,-0.492 0.754,-1.917 0.61,-1.936 0.467,-1.946 0.322,-1.948 0.629,-4.959 0.086,-0.627 0.093,-0.629 0.107,-0.629 0.116,-0.627 0.796,-4.162 0.568,-2.301 0.818,-2.273 1.065,-2.23 1.295,-2.162 1.647,-2.236 1.889,-2.108 2.105,-1.956 2.295,-1.776 4.319,-3.047 0.268,-0.198 0.252,-0.21 0.242,-0.22 0.229,-0.233 1.224,-2.092 0.046,-2.199 -1.139,-1.797 -2.068,-0.986 -0.791,-0.16 -0.725,-0.101 -0.75,-0.015 -0.76,0.07 -0.759,0.155 -5.097,1.33 -2.257,0.503 -2.265,0.326 -2.26,0.153 -2.233,-0.026 -5.831,-0.302 -0.529,-0.027 -0.531,-0.019 -0.531,-0.017 -0.531,-0.014 -0.729,-0.012 -4.812,0.02 -4.842,0.232 -4.866,0.449 -4.871,0.662 -0.759,0.12 -0.532,0.08 -0.535,0.077 -0.532,0.075 -0.533,0.067 -5.552,0.693 -2.435,0.209 -2.408,0.011 -2.365,-0.186 -2.298,-0.379 -2.807,-0.761 -2.631,-1.063 -2.421,-1.348 -2.171,-1.615 -0.366,-0.312 -1.39,-1.298 -1.251,-1.407 -1.106,-1.507 -0.956,-1.595 -1.67,-3.118 -0.561,-1.085 -0.525,-1.102 -0.487,-1.12 -0.453,-1.134 -0.912,-2.403 -0.804,-2.221 -0.739,-2.245 -0.673,-2.272 -0.603,-2.292 -1.101,-4.446 -0.08,-0.326 -0.114,-0.434 -1.089,-4.067 -0.777,-2.421 -1.006,-2.329 -1.234,-2.22 -1.448,-2.098 -1.444,-1.729 -1.594,-1.618 -1.741,-1.497 -1.878,-1.369 -1.797,-1.202 -1.407,-0.904 -1.447,-0.855 -1.491,-0.807 -1.528,-0.756 -1.926,-0.91 -2.253,-1.008 -2.312,-0.926 -2.366,-0.839 -2.416,-0.754 -2.772,-0.742 -2.826,-0.629 -2.875,-0.517 -2.918,-0.402 -0.646,-0.075 -2.307,-0.238 -2.328,-0.174 -2.344,-0.11 -2.359,-0.046 -5.634,-0.034 -0.559,-0.003 h -0.562 l -0.56,10e-4 -0.559,0.002 -4.019,0.024 -3.179,-0.012 -3.168,-0.065 -3.156,-0.123 -3.142,-0.176 -2.522,-0.185 -2.51,-0.223 -2.501,-0.254 -2.489,-0.295 -3.858,-0.483 -1.159,-0.14 -1.165,-0.131 -1.164,-0.12 -1.17,-0.113 -3.283,-0.301 -2.814,-0.214 -2.836,-0.127 -2.859,-0.041 -2.872,0.044 -2.889,0.134 -2.899,0.218 -2.907,0.307 -2.905,0.389 -1.581,0.238 -2.12,0.334 -2.12,0.369 -2.12,0.408 -2.114,0.441 -2.212,0.481 -2.585,0.537 -2.587,0.488 -2.59,0.442 -2.592,0.391 -3.702,0.525 -1.37,0.178 -1.369,0.147 -1.367,0.112 -1.366,0.084 -6.221,0.296 -1.307,0.112 -1.308,0.211 -1.3,0.307 -1.283,0.403 -3.343,1.561 -2.947,2.155 -2.386,2.628 -1.691,2.953 -0.833,1.953 -0.228,0.563 -0.207,0.567 -0.189,0.57 -0.165,0.573 -0.461,1.704 -1.177,3.231 -1.748,3.101 -2.268,2.888 -2.729,2.595 -1.368,1.06 -1.439,0.979 -1.503,0.893 -1.558,0.801 -3.589,1.712 -1.995,0.997 -1.956,1.068 -1.913,1.137 -1.866,1.204 -2.853,1.914 -1.659,1.134 -1.634,1.167 -1.609,1.191 -1.583,1.222 -4.403,3.468 -0.891,0.697 -0.895,0.694 -0.898,0.691 -0.902,0.689 -5.478,4.153 -1.088,0.835 -1.079,0.845 -1.067,0.858 -1.056,0.869 -1.386,1.149 -2.732,2.356 -2.628,2.444 -2.519,2.526 -2.406,2.603 -1.448,1.669 -1.401,1.694 -1.352,1.723 -1.302,1.745 -2.034,2.801 -1.05,1.42 -1.076,1.409 -1.1,1.397 -1.125,1.385 -2.413,2.922 -1.334,1.56 -1.394,1.525 -1.451,1.485 -1.506,1.446 -1.896,1.759 -1.834,1.611 -1.937,1.512 -2.029,1.41 -2.113,1.301 -1.381,0.801 -2.306,1.221 -2.392,1.048 -2.457,0.863 -2.503,0.671 -1.665,0.381 -2.298,0.411 -2.294,0.185 -2.262,-0.043 -2.2,-0.273 -2.203,-0.39 -1.889,-0.49 -1.727,-0.758 -1.521,-1.013 -1.277,-1.237 -1.4,-2.238 -0.685,-2.555 0.07,-2.727 0.819,-2.735 0.115,-0.263 0.91,-1.716 1.177,-1.617 1.416,-1.483 1.624,-1.316 4.239,-3.016 0.973,-0.67 0.996,-0.64 1.018,-0.609 1.037,-0.579 5.791,-3.112 1.352,-0.717 1.36,-0.703 1.368,-0.689 1.375,-0.673 3.782,-1.829 2.148,-1.026 2.159,-1.005 2.17,-0.98 2.179,-0.959 3.674,-1.593 1.489,-0.661 1.479,-0.681 1.468,-0.707 1.456,-0.73 3.836,-2.065 3.739,-2.219 3.63,-2.371 3.514,-2.516 1.497,-1.124 0.547,-0.411 0.543,-0.414 0.541,-0.417 0.538,-0.421 5.104,-4.008 1.575,-1.243 1.571,-1.247 1.565,-1.251 1.56,-1.255 5.554,-4.491 0.273,-0.219 0.274,-0.217 0.276,-0.217 0.277,-0.215 2.079,-1.609 3.2,-2.698 2.917,-2.931 2.603,-3.13 2.262,-3.295 0.795,-1.343 0.736,-1.359 0.677,-1.375 0.615,-1.39 1.913,-4.559 0.564,-1.301 0.6,-1.291 0.633,-1.285 0.668,-1.275 2.396,-4.445 0.779,-1.334 0.875,-1.302 0.969,-1.256 1.056,-1.21 2.966,-2.754 3.387,-2.339 3.708,-1.858 3.919,-1.319 1.425,-0.368 0.908,-0.224 0.909,-0.196 0.915,-0.171 0.914,-0.144 3.976,-0.57 2.918,-0.462 2.913,-0.545 2.906,-0.629 2.896,-0.71 4.781,-1.243 0.487,-0.126 0.49,-0.124 0.489,-0.122 0.491,-0.119 2.218,-0.533 4.169,-0.893 4.18,-0.677 4.178,-0.456 4.164,-0.24 1.604,-0.031 1.601,10e-4 1.594,0.031 1.589,0.068 3.144,0.165 2.534,0.113 2.544,0.069 2.553,0.025 2.561,-0.014 2.424,-0.035 1.991,-0.039 1.995,-0.054 1.997,-0.072 1.999,-0.09 1.868,-0.092 2.863,-0.156 2.867,-0.187 2.869,-0.218 2.873,-0.249 0.793,-0.074 2.55,-0.25 2.551,-0.275 2.549,-0.304 2.552,-0.331 3.275,-0.468 3.274,-0.512 3.273,-0.559 3.273,-0.602 3.127,-0.6 0.985,-0.183 0.983,-0.173 0.986,-0.166 0.984,-0.153 5.212,-0.791 2.228,-0.286 2.222,-0.178 2.208,-0.067 2.19,0.04 0.505,0.022 3.188,0.27 3.101,0.522 2.991,0.774 2.855,1.018 2.038,0.916 1.94,1.046 1.832,1.171 1.721,1.287 3.628,2.943 0.429,0.342 0.43,0.34 0.437,0.335 0.436,0.333 3.764,2.823 1.771,1.254 1.849,1.168 1.926,1.082 2,0.988 1.884,0.876 1.737,0.878 1.65,0.984 1.559,1.085 1.46,1.179 2.174,2.146 1.867,2.37 1.538,2.567 1.192,2.743 0.547,1.511 0.322,0.946 0.29,0.956 0.258,0.969 0.227,0.978 1.026,4.784 0.387,1.376 0.557,1.31 0.724,1.229 0.882,1.133 1.374,1.559 1.693,1.459 2.096,1.03 2.389,0.542 2.558,0.027 2.312,-0.411 2.244,-0.805 2.08,-1.164 1.835,-1.477 2.018,-1.935 1.082,-1.113 0.978,-1.178 0.867,-1.232 0.754,-1.279 1.358,-2.541 0.925,-2.206 0.453,-2.258 -0.041,-2.221 -0.529,-2.105 -0.821,-1.64 -1.137,-1.46 -1.427,-1.238 -1.677,-0.986 -4.958,-2.354 -0.33,-0.153 -0.332,-0.15 -0.335,-0.147 -0.337,-0.141 -3.187,-1.309 -2.939,-1.243 -2.899,-1.3 -2.862,-1.349 -2.822,-1.406 -1.75,-0.893 -0.976,-0.496 -0.982,-0.488 -0.985,-0.487 -0.987,-0.48 -5.951,-2.868 -0.753,-0.375 -0.743,-0.387 -0.732,-0.405 -0.719,-0.417 -4.011,-2.389 -1.597,-1.083 -1.43,-1.245 -1.25,-1.389 -1.053,-1.52 -0.385,-0.644 -1.001,-2.083 -0.596,-2.247 -0.183,-2.354 0.239,-2.411 0.61,-2.287 0.969,-2.238 1.312,-2.146 1.625,-2.007 0.675,-0.731 1.667,-1.647 1.835,-1.508 1.982,-1.35 2.106,-1.176 2.178,-1.095 2.051,-0.945 2.104,-0.81 2.145,-0.665 2.176,-0.517 1.309,-0.266 2.795,-0.412 2.772,-0.106 2.707,0.209 2.6,0.517 2.297,0.755 2.135,1.004 1.936,1.244 1.714,1.462 1.016,1.001 1.311,1.415 1.16,1.519 1.003,1.616 0.838,1.702 1.58,3.64 0.336,0.798 0.316,0.803 0.302,0.812 0.282,0.818 1.41,3.627 1.759,3.469 2.098,3.289 2.424,3.084 0.217,0.251 0.5,0.568 0.511,0.555 0.523,0.55 0.533,0.538 3.224,3.196 1.278,1.407 1.112,1.518 0.941,1.618 0.758,1.708 0.776,2.62 0.366,2.738 -0.043,2.813 -0.456,2.846 -0.15,0.653 -0.468,1.723 -0.596,1.712 -0.729,1.687 -0.852,1.66 -2.237,4.017 -0.666,1.163 -0.69,1.156 -0.721,1.146 -0.745,1.136 -3.27,4.866 -0.703,1.115 -0.623,1.137 -0.548,1.159 -0.469,1.179 -0.68,1.887 -0.635,2.474 -0.134,2.463 0.373,2.373 0.869,2.208 1.103,1.684 1.41,1.476 1.687,1.236 1.927,0.963 3.277,1.326 1.158,0.435 1.189,0.383 1.217,0.33 1.245,0.273 6.324,1.247 1.013,0.179 1.023,0.142 1.036,0.109 1.048,0.071 4.121,0.205 2.301,-0.045 2.322,-0.362 2.29,-0.671 2.195,-0.962 1.608,-0.831 1.831,-1.141 1.592,-1.403 1.295,-1.608 0.939,-1.748 0.647,-2.417 -0.079,-2.383 -0.792,-2.18 -1.456,-1.835 -2.106,-1.931 -0.645,-0.639 -0.59,-0.683 -0.528,-0.723 -0.469,-0.76 -1.181,-2.092 -1.204,-2.428 -0.947,-2.542 -0.68,-2.64 -0.408,-2.719 -0.371,-3.718 -0.028,-0.302 -0.026,-0.302 -0.022,-0.304 -0.023,-0.303 -0.104,-1.671 -0.479,-3.663 -0.967,-3.527 -1.44,-3.341 -1.895,-3.116 -0.648,-0.961 -0.607,-0.987 -0.558,-1.01 -0.516,-1.033 -0.212,-0.457 -1.606,-2.989 -1.922,-2.813 -2.226,-2.615 -2.509,-2.399 -1.984,-1.711 -0.201,-0.176 -0.265,-0.234 -4.822,-4.326 -1.094,-1.119 -0.923,-1.238 -0.746,-1.345 -0.555,-1.432 -0.509,-2.936 0.237,-3.064 0.972,-3.058 1.664,-2.91 0.805,-1.133 0.778,-1.024 0.843,-0.988 0.909,-0.944 0.969,-0.899 4.904,-4.3 0.974,-0.842 0.99,-0.828 1.003,-0.812 1.019,-0.798 3.284,-2.536 1.981,-1.579 1.922,-1.631 1.866,-1.683 1.804,-1.733 2.404,-2.285 2.508,-2.198 2.611,-2.105 2.708,-2.006 2.94,-2.093 0.631,-0.445 0.632,-0.44 0.635,-0.438 0.641,-0.435 6.41,-4.331 1.11,-0.743 1.116,-0.734 1.119,-0.726 1.127,-0.716 2.948,-1.86 2.471,-1.51 2.518,-1.448 2.557,-1.378 2.597,-1.31 2.79,-1.312 2.829,-1.231 2.862,-1.149 2.891,-1.065 0.555,-0.195 2.462,-0.834 2.477,-0.78 2.49,-0.724 2.501,-0.663 5.119,-1.299 0.71,-0.184 0.709,-0.183 0.71,-0.186 0.709,-0.188 5.345,-1.429 2.386,-0.622 2.391,-0.593 2.395,-0.558 2.399,-0.53 3.366,-0.719 1.708,-0.349 1.713,-0.32 1.713,-0.285 1.713,-0.255 1.333,-0.185 3.41,-0.549 3.406,-0.702 3.385,-0.849 3.479,-1.032 2.32,-0.775 2.181,-0.803 2.159,-0.866 2.132,-0.927 1.691,-0.767 2.508,-1.066 2.548,-0.95 2.585,-0.831 2.609,-0.71 3.115,-0.679 3.124,-0.499 3.125,-0.322 3.107,-0.14 1.636,-0.027 1.826,-0.002 1.815,0.045 1.804,0.098 1.79,0.145 1.668,0.161 2.975,0.336 2.942,0.43 2.905,0.527 2.908,0.631 2.469,0.617 2.398,0.677 2.361,0.744 2.323,0.81 4.334,1.588 0.556,0.2 0.555,0.201 0.558,0.198 0.558,0.197 7.349,2.564 0.837,0.28 0.85,0.259 0.864,0.237 0.873,0.213 7.305,1.694 0.744,0.223 0.686,0.316 0.617,0.403 0.531,0.478 2.459,2.585 0.646,1.315 -0.218,1.529 z"
     fill="#0f000a"
     stroke="#6a5fdb"
     stroke-width="2.72236"
     id="path2"
     style="fill:none" />
  <path
     d="m 218.74086,547.12385 c 28.844,-11.833 53.862,2.366 53.862,29.287 0,53.84 -64.164,84.311 -139.513,84.311 -52.684999,0 -70.638999,-12.129 -70.638999,-30.766 0,-9.467 5.004,-18.342 27.078,-16.271 l 129.505999,11.537 c 17.071,1.479 24.724,-6.508 24.724,-14.791 0,-8.579 -6.77,-14.496 -24.724,-16.862 l -105.37,-13.017 c -22.369999,-2.662 -30.021999,-16.27 -30.021999,-30.47 0,-10.946 4.12,-24.85 30.021999,-33.133 l 114.789,-36.682 c 13.833,-4.438 16.188,-10.354 16.188,-17.75 -0.295,-9.467 -9.124,-10.946 -16.483,-8.875 l -102.721,30.47 c -20.898,6.213 -60.337999,19.821 -62.692999,-20.116 -1.471,-23.666 17.66,-32.837 42.089999,-32.837 h 109.196 c 31.199,0 46.799,14.496 46.799,34.02 0,10.946 -7.653,21.892 -20.898,31.358 l -87.71,61.236 c -11.773,8.284 -5.887,19.229 7.653,13.609 z m 82.572,-70.407 c 0,-19.525 18.248,-49.995 83.296,-49.995 87.71,0.591 117.732,19.228 117.732,49.699 0,17.158 -6.181,22.779 -27.373,32.541 l -48.859,22.483 c -3.826,1.775 -5.592,4.141 -4.709,7.691 0.589,2.663 2.943,5.029 9.419,5.325 l 24.135,0.888 c 33.848,1.183 50.036,18.045 50.036,58.278 0,37.274 -38.557,56.799 -94.186,56.799 -65.93,-0.592 -120.381,-10.65 -120.381,-61.237 0,-28.695 9.713,-48.515 43.855,-51.178 l 32.376,-2.662 c 6.77,-0.592 9.125,-3.846 9.125,-7.692 0,-3.846 -2.944,-7.1 -7.653,-8.283 -49.153,-12.425 -66.813,-26.329 -66.813,-52.657 z m 119.498,81.648 c -16.188,-11.241 -25.607,-12.129 -42.678,0 l -58.572,42.008 c -8.535,6.212 -7.652,17.454 5.004,17.454 l 152.758,-0.888 c 11.773,0 13.245,-9.762 4.415,-15.975 z m -37.968,-39.345 c 6.181,13.608 19.131,13.608 30.61,5.325 l 39.146,-27.808 c 8.83,-6.212 9.713,-13.904 -1.177,-19.229 l -71.817,-34.907 c -18.249,-8.875 -32.671,-0.888 -25.018,15.383 z m 237.626,-92.298 c 55.922,0 107.43,37.866 107.43,63.899 0,21.595 -28.255,37.274 -51.213,10.353 l -43.267,-50.882 c -26.784,-31.358 -78.292,17.454 -37.085,39.345 l 16.188,8.579 c 24.724,13.312 16.188,39.345 -4.71,45.262 l -52.979,14.791 c -12.362,3.55 -11.773,14.2 -0.294,21.3 l 95.068,57.982 c 13.54,8.283 20.898,-0.591 18.543,-13.904 l -5.003,-28.103 c -2.944,-16.863 -2.944,-42.6 21.78,-45.262 30.022,-3.254 38.852,15.975 38.852,36.683 0,38.457 -33.26,73.661 -89.771,73.661 -67.696,0 -115.083,-50.587 -115.083,-120.994 0,-63.307 32.082,-112.71 101.544,-112.71 z m 279.12,120.402 c 28.844,-11.833 53.862,2.366 53.862,29.287 0,53.84 -64.164,84.311 -139.513,84.311 -52.685,0 -70.639,-12.129 -70.639,-30.766 0,-9.467 5.003,-18.342 27.078,-16.271 l 129.506,11.537 c 17.071,1.479 24.724,-6.508 24.724,-14.791 0,-8.579 -6.77,-14.496 -24.724,-16.862 l -105.371,-13.017 c -22.369,-2.662 -30.021,-16.27 -30.021,-30.47 0,-10.946 4.12,-24.85 30.021,-33.133 l 114.789,-36.682 c 13.834,-4.438 16.189,-10.354 16.189,-17.75 -0.295,-9.467 -9.125,-10.946 -16.483,-8.875 l -102.721,30.47 c -20.898,6.213 -60.338,19.821 -62.693,-20.116 -1.472,-23.666 17.66,-32.837 42.089,-32.837 h 109.197 c 31.199,0 46.799,14.496 46.799,34.02 0,10.946 -7.653,21.892 -20.898,31.358 l -87.71,61.236 c -11.774,8.284 -5.887,19.229 7.652,13.609 z"
     fill="#FF5053"
     stroke="#FF5053"
     stroke-width="4.5"
     stroke-miterlimit="2"
     stroke-linejoin="round"
     id="path3"
     style="fill:#30ff30;fill-opacity:1;stroke:#30ff30;stroke-opacity:1" />
  <rect
     x="307.70187"
     y="258.40787"
     width="404.37201"
     height="87.502998"
     fill="#0f000a"
     id="rect3" />
  <rect
     x="307.70187"
     y="258.40787"
     width="404.37201"
     height="87.502998"
     stroke="#6a5fdb"
     stroke-width="2.85866"
     id="rect4"
     style="fill:none" />
  <rect
     x="169.20187"
     y="734.06085"
     width="681.37201"
     height="87.502998"
     fill="#0f000a"
     id="rect5" />
  <rect
     x="169.20187"
     y="734.06085"
     width="681.37201"
     height="87.502998"
     stroke="#6a5fdb"
     stroke-width="2.85866"
     id="rect6"
     style="fill:none" />
  <path
     d="m 118.21147,81.024003 -56.320005,4.992 c -7.424,0.64 -10.752,-2.816 -10.752,-6.4 0,-3.712 2.944,-6.272 10.752,-7.296 l 45.824005,-5.632 c 9.728,-1.152 13.056,-7.04 13.056,-13.184 0,-4.736 -1.792,-10.752 -13.056,-14.336 l -49.920005,-15.872 c -6.016,-1.92 -7.04,-4.48 -7.04,-7.68 0,-2.816 3.456,-8.0640001 9.728,-5.8880001 L 112.83547,28.032003 c 11.008,3.84 16.768,0.768 17.152,-6.912 0.384,-7.296 -3.2,-11.3920001 -9.984,-14.5920001 -7.424,-3.456 -26.624005,-6.39999997 -43.776005,-6.27199997 -17.024,0 -32.384,3.83999997 -32.384,16.64000007 0,4.736 3.2,9.344 8.96,13.44 l 38.144,26.496 c 5.12,3.584 2.56,8.32 -3.328,5.888 l -25.6,-10.496 c -12.544,-5.12 -23.424,1.024 -23.424,12.672 0,23.296 27.904,36.479997 60.672,36.479997 22.912005,0 30.720005,-5.247997 30.720005,-13.311997 0,-4.096 -2.176,-7.936 -11.776,-7.04 z M 197.1875,0.25600293 c -29.312,0 -52.48,17.92000007 -52.48,35.71200007 0,6.144 3.584,11.264 10.88,12.544 l 65.152,11.776 c 4.096,0.768 5.76,1.92 6.144,4.736 0.384,2.688 -0.896,5.12 -6.4,6.272 l -55.168,11.904 c -4.224,0.896 -6.912,1.024 -8.96,-0.384 -1.28,-0.896 -1.664,-3.2 -0.128,-5.504 l 5.632,-8.448 c 6.912,-10.368 -0.64,-15.232 -5.632,-15.232 -7.552,0 -11.008,6.272 -11.008,15.36 0,23.04 21.888,32.511997 44.032,32.511997 22.528,0 45.312,-12.159997 45.312,-34.431997 0,-5.248 -3.456,-10.368 -8.704,-11.648 l -8.064,-1.92 c -5.12,-1.152 -7.168,-1.792 -7.296,-6.528 l -0.128,-4.864 c -0.256,-9.216 -8.576,-17.408 -20.736,-11.776 l -27.136,12.544 c -4.352,2.048 -8.32,1.408 -9.6,-3.328 -1.28,-4.736 3.328,-6.784 8.704,-9.344 l 44.8,-21.6320001 c 7.68,-3.712 11.52,-0.512 11.52,5.6320001 v 21.76 c 0,5.376 3.84,10.624 9.984,10.624 7.68,0 10.496,-8.192 10.496,-15.232 0,-14.848 -10.496,-31.10400007 -41.216,-31.10400007 z M 302.65945,2.0480029 h -26.112 c -16.64,0 -24.448,10.6240001 -24.448,24.9600001 v 55.168 c 0,16.128 8.064,19.071997 16.896,19.071997 9.856,0 15.36,-3.839997 15.36,-12.799997 0,-6.272 -2.176,-11.136 -7.424,-17.152 l -15.744,-17.664 c -3.328,-3.712 -3.968,-9.344 -0.512,-13.184 3.968,-4.352 9.984,-4.096 13.184,0 l 14.72,19.328 c 8.576,11.264 16.128,15.744 27.136,15.744 19.328,0 27.392,-14.464 27.392,-33.664 0,-25.984 -12.416,-39.8080001 -40.448,-39.8080001 z m -31.744,26.4960001 c 0,-2.688 2.048,-3.968 5.376,-5.376 l 23.68,-9.728 c 6.912,-2.816 9.216,-2.176 13.824,4.352 l 19.456,27.904 c 6.656,9.472 -0.512,17.664 -13.44,11.136 l -44.416,-22.528 c -3.2,-1.664 -4.48,-3.584 -4.48,-5.76 z m 105.72797,-12.928 56.32,4.992 c 9.6,0.896 11.776,-2.944 11.776,-7.04 0,-8.0640001 -7.808,-13.31200007 -30.72,-13.31200007 -32.768,0 -60.672,13.18400007 -60.672,36.48000007 0,11.648 10.88,17.792 23.424,12.672 l 25.6,-10.496 c 5.888,-2.432 8.448,2.304 3.328,5.888 l -38.144,26.496 c -5.76,4.096 -8.96,8.704 -8.96,13.44 0,12.8 15.36,16.639997 32.384,16.639997 17.152,0.128 36.352,-2.815997 43.776,-6.271997 6.784,-3.2 10.368,-7.296 9.984,-14.592 -0.384,-7.68 -6.144,-10.752 -17.152,-6.912 l -52.352,18.304 c -6.272,2.176 -9.728,-3.072 -9.728,-5.888 0,-3.2 1.024,-5.76 7.04,-7.68 l 49.92,-15.872 c 11.264,-3.584 13.056,-9.6 13.056,-14.336 0,-6.144 -3.328,-12.032 -13.056,-13.184 l -45.824,-5.632 c -7.808,-1.024 -10.752,-3.584 -10.752,-7.296 0,-3.584 3.328,-7.04 10.752,-6.4 z m 178.43203,69.504 c 0,-7.936 -6.4,-13.184 -14.848,-13.312 l -25.216,-0.256 c -4.864,0 -6.912,-1.024 -6.912,-3.968 0,-3.072 2.432,-4.608 5.504,-5.632 l 20.992,-7.424 c 18.048,-6.4 21.248,-14.208 21.248,-22.912 0,-11.52 -7.552,-31.48800007 -39.168,-31.48800007 -38.912,0 -57.216,33.15200007 -57.216,76.67200007 0,18.304 8.832,24.447997 16.768,24.447997 14.592,0 16.128,-11.263997 11.136,-23.039997 l -13.056,-30.72 c -1.024,-2.432 -1.664,-4.992 -1.664,-7.424 0,-9.088 7.168,-16.896 20.352,-16.896 h 40.064 c 9.344,0 14.208,4.864 14.208,11.136 0,6.656 -4.48,12.8 -18.176,11.008 l -38.912,-4.992 c -4.736,-0.64 -7.296,0.256 -7.424,3.584 0,1.792 1.28,4.48 4.096,8.064 l 31.616,38.272 c 7.04,8.576 13.824,11.007997 18.944,11.007997 13.312,0 17.664,-8.063997 17.664,-16.127997 z m 64.51211,-15.616 -33.024,0.768 c -11.264,0.256 -20.48,4.48 -20.48,14.72 0,12.032 8.32,16.255997 15.744,16.255997 10.496,0 19.968,-9.471997 25.856,-14.463997 l 12.544,-10.752 c 4.48,-3.84 8.192,-2.944 8.192,4.096 v 6.656 c 0,7.808 4.992,14.463997 15.488,14.463997 13.184,0 17.536,-11.007997 14.848,-25.343997 l -11.648,-61.568 c -1.664,-8.7040001 -6.912,-14.20800007 -14.592,-14.20800007 -8.32,0 -12.928,3.32799997 -24.064,12.16000007 l -25.728,20.48 c -5.888,4.736 -9.728,9.728 -9.728,15.232 0,7.936 6.144,14.208 13.696,14.208 4.736,0 11.904,-1.664 16,-10.112 l 15.488,-31.744 c 1.92,-3.968 6.528,-13.6960001 11.904,-14.7200001 5.376,-1.024 8.832,3.456 7.936,10.4960001 l -5.504,45.312 c -0.768,6.528 -5.632,7.936 -12.928,8.064 z m 69.8879,31.743997 c 13.824,0 16.384,-12.031997 10.624,-26.239997 l -17.408,-42.624 c -1.152,-2.816 -2.304,-8.576 -2.304,-12.16 0,-7.296 4.224,-12.6720001 11.392,-12.6720001 4.608,0 8.576,3.3280001 7.552,9.8560001 l -1.152,7.296 c -1.664,10.624 3.712,22.016 8.832,29.056 l 21.248,29.44 c 9.088,12.544 13.056,18.047997 20.864,18.047997 8.32,0 12.544,-5.631997 13.952,-17.919997 l 6.528,-59.264 c 1.28,-11.776 -2.56,-24.0640000703125 -15.232,-24.0640000703125 -10.752,0 -14.08,8.3199999703125 -14.08,14.8480000703125 0,3.072 -0.256,7.168 2.944,15.36 l 11.776,30.336 c 1.664,4.224 2.688,7.168 2.688,9.472 0,2.816 -1.536,4.224 -4.736,4.224 -2.304,0 -4.096,-1.792 -7.168,-6.656 l -30.336,-47.488 c -7.68,-12.0320001 -13.312,-19.96800007 -23.424,-19.96800007 -13.696,0 -19.712,6.39999997 -19.712,35.20000007 v 34.56 c 0,18.56 0.384,31.359997 17.152,31.359997 z m 137.216,-83.711997 -20.608,59.904 c -5.248,13.952 -2.432,23.807997 11.264,23.807997 12.288,0 14.848,-7.039997 15.104,-20.607997 l 1.408,-62.592 c 0.128,-8.0640001 1.536,-11.3920001 4.992,-11.3920001 4.352,0 5.632,4.2240001 5.632,9.8560001 v 5.632 c 0,17.664 3.712,26.112 15.36,25.728 8.192,-0.256 14.336,-7.296 14.336,-15.232 0,-17.792 -14.08,-30.5920001 -37.248,-30.5920001 h -43.776 c -13.312,0 -17.536,7.68 -17.536,14.2080001 0,14.72 18.944,22.144 30.72,9.088 l 14.336,-16.0000001 c 1.28,-1.408 2.688,-2.048 3.84,-2.048 3.456,0 4.736,2.9440001 2.176,10.2400001 z M 928.45138,0.12800293 c -29.696,0 -45.312,17.28000007 -45.312,50.81600007 0,33.536 15.616,50.303997 45.312,50.303997 29.824,0 45.44,-16.767997 45.44,-50.303997 0,-33.536 -15.616,-50.81600007 -45.44,-50.81600007 z m 2.176,11.13600007 33.792,40.832 c 4.352,5.248 3.072,11.008 -3.072,13.44 l -48.512,19.456 c -10.24,4.096 -18.304,-2.56 -14.592,-14.592 l 17.28,-55.168 c 2.048,-6.6560001 10.24,-9.7280001 15.104,-3.968 z"
     id="text6"
     style="font-size:128px;line-height:1.25;font-family:Pilowlava;-inkscape-font-specification:'Pilowlava, Normal';letter-spacing:0px;word-spacing:0px;fill:#30ff30"
     aria-label="Esperanto" />
  <path
     d="m 234.04674,763.95856 h -7.52 l -17.43999,16.95999 h -0.53333 v -16.95999 h -5.28 v 37.33331 h 5.28 v -13.33333 l 5.44,-5.11999 12.90666,18.45332 h 6.55999 l -15.73332,-21.97332 z m 22.74665,14.34666 v 8.63999 c 0,9.81333 5.81333,15.09333 14.87999,15.09333 9.06667,0 14.88,-5.28 14.88,-15.09333 v -8.63999 c 0,-9.81333 -5.81333,-15.09333 -14.88,-15.09333 -9.06666,0 -14.87999,5.28 -14.87999,15.09333 z m 5.28,-0.21334 c 0,-6.29333 3.57333,-10.18666 9.59999,-10.18666 6.02667,0 9.6,3.89333 9.6,10.18666 v 9.06667 c 0,6.29332 -3.57333,10.18666 -9.6,10.18666 -6.02666,0 -9.59999,-3.89334 -9.59999,-10.18666 z m 52.45331,-14.13332 v 37.33331 h 5.28 v -31.83998 h 0.53333 l 12.69333,31.83998 h 9.01333 v -37.33331 h -5.28 v 31.83998 h -0.53333 l -12.69333,-31.83998 z m 53.89334,0 v 4.74666 h 12.05332 v 32.58665 h 5.28 v -32.58665 h 12.05333 v -4.74666 z m 83.22665,11.25333 c 0,-6.93333 -4.96,-11.2 -11.78666,-11.2 h -15.67999 v 37.27998 h 5.28 v -14.87999 h 7.89333 l 7.57332,14.87999 h 6.02667 l -8.16,-15.14666 c 5.22667,-1.06666 8.85333,-5.06666 8.85333,-10.93332 z m -22.18665,-6.45333 h 9.86666 c 4.37333,0 7.03999,2.39999 7.03999,6.45333 0,3.99999 -2.66666,6.45333 -7.03999,6.45333 h -9.86666 z m 57.68002,-4.8 -11.52,37.33331 h 5.44 l 2.77333,-9.06666 h 14.71999 l 2.77334,9.06666 h 5.49333 l -11.52,-37.33331 z m -1.97334,23.46665 5.76,-18.87999 h 0.53333 l 5.76,18.87999 z m 64.2933,-33.06665 v 0.21334 c 0,1.54666 -0.90667,2.61333 -2.66667,2.61333 -1.76,0 -2.66666,-1.06667 -2.66666,-2.61333 v -0.21334 h -3.84 v 0.53334 c 0,3.78666 2.66666,6.07999 6.50666,6.07999 3.84,0 6.50667,-2.29333 6.50667,-6.07999 v -0.53334 z m -16.69333,9.6 v 24.63998 c 0,8.64 5.44,13.44 14.02666,13.44 8.58666,0 14.02666,-4.8 14.02666,-13.44 v -24.63998 h -5.28 v 24.74665 c 0,5.6 -3.14666,8.64 -8.74666,8.64 -5.59999,0 -8.74666,-3.04 -8.74666,-8.64 v -24.74665 z m 57.09328,0 v 37.33331 h 23.89332 v -4.74666 h -18.61332 v -32.58665 z m 50.37329,0 v 37.33331 h 24.10665 v -4.74666 h -18.82665 v -11.62666 h 17.06666 v -4.8 h -17.06666 v -11.41333 h 18.55999 v -4.74666 z m 68.39995,-4.21333 h 5.17333 l -5.17333,-6.93333 h -6.29333 l -5.17333,6.93333 h 5.12 l 2.87999,-4 h 0.58667 z m -18.02666,26.98665 c 0,9.75999 5.76,15.30666 14.98666,15.30666 8.85333,0 14.07999,-5.17333 14.07999,-13.76 v -5.06666 h -15.67999 v 4.53333 h 10.50666 v 1.01333 c 0,5.33333 -2.93333,8.58667 -8.90666,8.58667 -6.02666,0 -9.70666,-4 -9.70666,-10.50666 v -8.42667 c 0,-6.50666 3.68,-10.50666 9.75999,-10.50666 5.76,0 8.53333,3.46667 8.53333,8.42666 v 0.58667 h 5.28 v -0.53333 c 0,-7.94666 -4.74666,-13.17333 -13.81333,-13.17333 -9.17332,0 -15.03999,5.54667 -15.03999,15.30666 z m 65.52005,-22.77332 -11.51999,37.33331 h 5.43999 l 2.77333,-9.06666 h 14.72 l 2.77333,9.06666 h 5.49333 l -11.52,-37.33331 z m -1.97333,23.46665 5.75999,-18.87999 h 0.53334 l 5.75999,18.87999 z m 69.41326,-23.46665 h -5.28 v 26.13332 c 0,4.31999 -1.86667,7.19999 -6.24,7.19999 -4.42666,0 -6.66666,-2.88 -6.66666,-7.19999 v -3.09333 h -5.28 v 3.09333 c 0,7.67999 4.64,11.94666 12.05333,11.94666 7.30666,0 11.41333,-4.21333 11.41333,-11.94666 z"
     id="text7"
     style="font-weight:500;font-size:53.3333px;line-height:1.25;font-family:'Space Grotesk';-inkscape-font-specification:'Space Grotesk, Medium';letter-spacing:22px;word-spacing:0px;fill:#30ff30"
     aria-label="KONTRALEAJ" />
  <path
     d="m 329.85979,298.99592 v 8.64 c 0,9.81332 5.81333,15.09332 14.87999,15.09332 9.06666,0 14.87999,-5.28 14.87999,-15.09332 v -8.64 c 0,-9.81333 -5.81333,-15.09332 -14.87999,-15.09332 -9.06666,0 -14.87999,5.27999 -14.87999,15.09332 z m 5.27999,-0.21333 c 0,-6.29333 3.57334,-10.18666 9.6,-10.18666 6.02666,0 9.59999,3.89333 9.59999,10.18666 v 9.06666 c 0,6.29333 -3.57333,10.18666 -9.59999,10.18666 -6.02666,0 -9.6,-3.89333 -9.6,-10.18666 z m 79.91997,-2.88 c 0,-6.93333 -4.96,-11.19999 -11.78666,-11.19999 H 387.5931 v 37.27997 h 5.27999 v -14.87999 h 7.89333 l 7.57333,14.87999 h 6.02666 l -8.15999,-15.14665 c 5.22666,-1.06667 8.85333,-5.06667 8.85333,-10.93333 z m -22.18666,-6.45333 h 9.86666 c 4.37333,0 7.04,2.4 7.04,6.45333 0,4 -2.66667,6.45333 -7.04,6.45333 h -9.86666 z m 49.51998,-4.8 v 37.33331 h 11.73332 c 9.86666,0 15.41333,-4.95999 15.41333,-15.19999 v -6.93333 c 0,-10.23999 -5.54667,-15.19999 -15.41333,-15.19999 z m 5.27999,4.74667 h 6.50667 c 6.66666,0 10.07999,3.36 10.07999,10.29332 v 7.25333 c 0,6.88 -3.30666,10.29333 -10.07999,10.29333 h -6.50667 z m 48.56,9.59999 v 8.64 c 0,9.81332 5.81333,15.09332 14.87999,15.09332 9.06667,0 14.88,-5.28 14.88,-15.09332 v -8.64 c 0,-9.81333 -5.81333,-15.09332 -14.88,-15.09332 -9.06666,0 -14.87999,5.27999 -14.87999,15.09332 z m 5.28,-0.21333 c 0,-6.29333 3.57333,-10.18666 9.59999,-10.18666 6.02667,0 9.6,3.89333 9.6,10.18666 v 9.06666 c 0,6.29333 -3.57333,10.18666 -9.6,10.18666 -6.02666,0 -9.59999,-3.89333 -9.59999,-10.18666 z m 52.45331,-14.13333 v 37.33331 h 5.28 v -31.83998 h 0.53333 l 12.69333,31.83998 h 9.01332 v -37.33331 h -5.27999 v 31.83998 h -0.53334 L 562.9797,284.64926 Z m 55.49333,14.34666 v 8.64 c 0,9.81332 5.81333,15.09332 14.87999,15.09332 9.06666,0 14.87999,-5.28 14.87999,-15.09332 v -8.64 c 0,-9.81333 -5.81333,-15.09332 -14.87999,-15.09332 -9.06666,0 -14.87999,5.27999 -14.87999,15.09332 z m 5.28,-0.21333 c 0,-6.29333 3.57333,-10.18666 9.59999,-10.18666 6.02667,0 9.6,3.89333 9.6,10.18666 v 9.06666 c 0,6.29333 -3.57333,10.18666 -9.6,10.18666 -6.02666,0 -9.59999,-3.89333 -9.59999,-10.18666 z m 74.0533,-14.13333 h -5.28 v 26.13332 c 0,4.32 -1.86667,7.2 -6.24,7.2 -4.42666,0 -6.66666,-2.88 -6.66666,-7.2 v -3.09333 h -5.28 v 3.09333 c 0,7.68 4.64,11.94666 12.05333,11.94666 7.30666,0 11.41333,-4.21333 11.41333,-11.94666 z"
     id="text7-2"
     style="font-weight:500;font-size:53.3333px;line-height:1.25;font-family:'Space Grotesk';-inkscape-font-specification:'Space Grotesk, Medium';letter-spacing:22px;word-spacing:0px;fill:#30ff30"
     aria-label="ORDONOJ" />
</svg>
